<svg viewBox="0 0 279.99999999999994 279.99999999999994" xmlns="http://www.w3.org/2000/svg" xmlns:xlink="http://www.w3.org/1999/xlink" overflow="visible" width="279.99999999999994px" height="279.99999999999994px"><defs><circle id="masteravataaardefault-with-backdrop-path-1" cx="140" cy="140" r="140"/><path d="M83,36.3476251 C83,52.6289957 105.161905,65.8276544 132.5,65.8276544 C159.838095,65.8276544 182,52.6289957 182,36.3476251 C182,34.9853134 181.844841,33.6445843 181.544472,32.3313638 C210.784239,41.4879251 232,68.792221 232,101.051724 L232,110 L32,110 L32,101.051724 C32,68.3970853 53.7386736,40.8197864 83.5337207,32.0021267 C83.1821692,33.4207025 83,34.871494 83,36.3476251 Z" id="masteravataaardefault-with-backdrop-path-3"/></defs><g id="Master/Avataaar/Default with Backdrop" stroke="none" stroke-width="1" fill="none" fill-rule="evenodd"><mask id="masteravataaardefault-with-backdrop-mask-2" fill="#fff"><use xlink:href="#masteravataaardefault-with-backdrop-path-1"/></mask><use id="Oval" fill="#40bad5" xlink:href="#masteravataaardefault-with-backdrop-path-1"/><g id="Group" mask="url(#masteravataaardefault-with-backdrop-mask-2)"><g transform="translate(7.000000, 0.000000)"><path d="M133,36 C163.927946,36 189,61.072054 189,92 L189.000809,98.1660527 C194.675838,99.1185422 199,104.05429 199,110 L199,124 C199,130.052417 194.519235,135.058294 188.693975,135.881364 C186.627928,155.686472 174.237929,172.421678 157.001014,180.610469 L157,199 L161,199 C200.764502,199 233,231.235498 233,271 L233,280 L33,280 L33,271 C33,231.235498 65.235498,199 105,199 L109,199 L108.999984,180.610943 C91.7625487,172.422324 79.3721119,155.686854 77.3051107,135.88097 C71.480765,135.058294 67,130.052417 67,124 L67,110 C67,104.053942 71.3246685,99.1179645 77.0001873,98.1658855 L77,92 C77,61.072054 102.072054,36 133,36 Z" id="Body" fill="#eac7a8" fill-rule="evenodd"/><path d="M108.998216,180.610103 C116.272713,184.066155 124.410519,186 133,186 C141.588785,186 149.725969,184.066469 157.000016,180.610943 L157.000353,185.94579 C150.441661,190.398372 142.524652,193 134,193 C124.589035,193 115.918635,189.829263 108.998807,184.497795 Z" id="shadow" fill-opacity=".24" fill="#000" fill-rule="evenodd"/><g id="Nose" fill="none" transform="translate(105.000000, 122.000000) scale(1 1)" fill-rule="evenodd"><g id="Nose/Small" stroke="none" stroke-width="1" fill="none" fill-rule="evenodd"><path d="M20,7 C20,12.5228475 24.0470996,15 28,15 C31.9529004,15 36,12.5228475 36,7 C33.8327451,7.7317728 31.1406373,8.0976592 27.9236765,8.0976592 C24.7406373,8.0976592 22.0994118,7.7317728 20,7 Z" id="Nose" fill-opacity=".16" fill="#000"/></g></g><g id="Clothing" fill="none" transform="translate(1.000000, 170.000000) scale(1 1)"><defs><path d="M156.001177,13.0710173 C174.10124,15.0965377 188,20.6637035 188,35.0769231 L187.994775,34.6445513 C213.853089,45.5674185 232,71.1642324 232,100.999485 L232,110 L32,110 L32,100.999485 C32,71.1638494 50.1473773,45.5667611 76.0062213,34.6441305 C76.2809798,20.5514284 90.0819496,15.075891 107.999825,13.0709052 L108,32 C108,45.254834 118.745166,56 132,56 C145.254834,56 156,45.254834 156,32 L156,32 Z" id="clothinghoodie-path-1"/></defs><g id="Clothing/Hoodie" stroke="none" stroke-width="1" fill="none" fill-rule="evenodd"><mask id="clothinghoodie-mask-2" fill="#fff"><use xlink:href="#clothinghoodie-path-1"/></mask><use id="Hoodie" fill="#fcbf1e" xlink:href="#clothinghoodie-path-1"/><path d="M101.999618,61.7388852 L102,110 L95,110 L94.9990839,58.149718 C97.2029904,59.4596568 99.5461861,60.6605136 101.999618,61.7388852 Z M169.001367,58.1494501 L169,98.5 C169,100.432997 167.432997,102 165.5,102 C163.567003,102 162,100.432997 162,98.5 L162.001384,61.7384448 C164.454619,60.6601132 166.797629,59.4593148 169.001367,58.1494501 Z" id="Straps" fill="#F4F4F4" mask="url(#clothinghoodie-mask-2)"/><path d="M173.041065,12.7245804 C188.091243,15.5714792 198.5,21.2431784 198.5,32.3076923 C198.5,52.0200095 165.462319,68 132,68 C98.5376807,68 65.5,52.0200095 65.5,32.3076923 C65.5,21.2431784 75.908757,15.5714792 90.9589345,12.7245804 C81.8748056,16.0747223 76,21.706273 76,31.0769231 C76,51.4689754 103.821205,68 132,68 C160.178795,68 188,51.4689754 188,31.0769231 C188,21.9004995 182.366206,16.3097803 173.60124,12.9358572 Z" id="Shadow" fill-opacity=".16" fill="#000" mask="url(#clothinghoodie-mask-2)"/></g></g><g id="Mouth" fill="none" transform="translate(79.000000, 134.000000) scale(1 1)" fill-rule="evenodd"><g id="Mouth/Smile" stroke="none" stroke-width="1" fill="none" fill-rule="evenodd"><path d="M35.117844,15.1280772 C36.1757121,24.6198025 44.2259873,32 54,32 C63.8042055,32 71.8740075,24.574136 72.8917593,15.0400546 C72.9736685,14.272746 72.1167429,13 71.042767,13 C56.1487536,13 44.7379213,13 37.0868244,13 C36.0066168,13 35.0120058,14.1784435 35.117844,15.1280772 Z" id="Mouth" fill-opacity=".7" fill="#000"/><path d="M59,24 C61.9944261,24 64.7093962,25.1964934 66.6929035,27.1374734 C63.3281849,30.1611116 58.8788402,32 54,32 C49.1207895,32 44.6711395,30.1608324 41.3064872,27.1379343 C43.2906038,25.1964934 46.0055739,24 49,24 C50.8007033,24 52.5003486,24.4326806 54.0006412,25.199747 C55.5004036,24.4324891 57.1996952,24 59,24 Z" id="Path" fill-opacity=".7" fill="#FF4F6D"/><path d="M70,13 C70,15.7614237 67.7614237,18 65,18 L44,18 C41.2385763,18 39,15.7614237 39,13 L70,13 Z" id="Path" fill="#FFF"/><g id="Tongue" transform="translate(38.000000, 24.000000)"/></g></g><g id="Eyes" fill="none" transform="translate(77.000000, 90.000000) scale(1 1)" fill-rule="evenodd"><defs><path d="M14,14.0481187 C23.6099827,14.0481187 28,18.4994466 28,11.5617716 C28,4.62409673 21.7319865,0 14,0 C6.2680135,0 0,4.62409673 0,11.5617716 C0,18.4994466 4.39001726,14.0481187 14,14.0481187 Z" id="eyessquint-path-1"/><path d="M14,14.0481187 C23.6099827,14.0481187 28,18.4994466 28,11.5617716 C28,4.62409673 21.7319865,0 14,0 C6.2680135,0 0,4.62409673 0,11.5617716 C0,18.4994466 4.39001726,14.0481187 14,14.0481187 Z" id="eyessquint-path-3"/></defs><g id="Eyes/Squint" stroke="none" stroke-width="1" fill="none" fill-rule="evenodd"><g id="Eye" transform="translate(16.000000, 13.000000)"><mask id="eyessquint-mask-2" fill="#fff"><use xlink:href="#eyessquint-path-1"/></mask><use id="The-white-stuff" fill="#FFF" xlink:href="#eyessquint-path-1"/><circle fill-opacity=".7" fill="#000" mask="url(#eyessquint-mask-2)" cx="14" cy="10" r="6"/></g><g id="Eye" transform="translate(68.000000, 13.000000)"><mask id="eyessquint-mask-4" fill="#fff"><use xlink:href="#eyessquint-path-3"/></mask><use id="Eyeball-Mask" fill="#FFF" xlink:href="#eyessquint-path-3"/><circle fill-opacity=".7" fill="#000" mask="url(#eyessquint-mask-4)" cx="14" cy="10" r="6"/></g></g></g><g id="Eyebrow/Outline" fill="none" transform="translate(77.000000, 82.000000) scale(1 1)" fill-rule="evenodd"><g id="Eyebrow/Outline/Default" stroke="none" stroke-width="1" fill="none" fill-rule="evenodd"><g id="I-Browse" transform="translate(12.000000, 6.000000)" fill="#000" fill-opacity=".6" fill-rule="nonzero"><path d="M3.63024536,11.1585767 C7.54515501,5.64986673 18.2779197,2.56083721 27.5230268,4.83118046 C28.5957248,5.0946055 29.6788665,4.43856013 29.9422916,3.36586212 C30.2057166,2.2931641 29.5496712,1.21002236 28.4769732,0.94659732 C17.7403633,-1.69001789 5.31209962,1.88699832 0.369754639,8.84142326 C-0.270109626,9.74178291 -0.0589363917,10.9903811 0.84142326,11.6302454 C1.74178291,12.2701096 2.9903811,12.0589364 3.63024536,11.1585767 Z" id="Eyebrow"/><path d="M61.6302454,11.1585767 C65.545155,5.64986673 76.2779197,2.56083721 85.5230268,4.83118046 C86.5957248,5.0946055 87.6788665,4.43856013 87.9422916,3.36586212 C88.2057166,2.2931641 87.5496712,1.21002236 86.4769732,0.94659732 C75.7403633,-1.69001789 63.3120996,1.88699832 58.3697546,8.84142326 C57.7298904,9.74178291 57.9410636,10.9903811 58.8414233,11.6302454 C59.7417829,12.2701096 60.9903811,12.0589364 61.6302454,11.1585767 Z" id="Eyebrow" transform="translate(73.000154, 6.039198) scale(-1, 1) translate(-73.000154, -6.039198)"/></g></g></g><g id="Facial Hair" fill="none" transform="translate(50.000000, 72.000000) scale(1 1)" fill-rule="evenodd"><defs><path d="M101.428403,98.1685688 C98.9148372,100.462621 96.23722,101.494309 92.8529444,100.772863 C92.2705777,100.648833 89.8963391,96.2345713 83.9998344,96.2345713 C78.1033297,96.2345713 75.7294253,100.648833 75.1467245,100.772863 C71.7624488,101.494309 69.0848316,100.462621 66.5712661,98.1685688 C61.8461772,93.855604 57.9166219,87.9081858 60.2778299,81.4191814 C61.5083844,78.0369425 63.5097479,74.3237342 67.1506257,73.2459109 C71.0384163,72.0955419 76.4968931,73.2439051 80.4147542,72.4582708 C81.6840664,72.2035248 83.0706538,71.7508657 83.9998344,71 C84.929015,71.7508657 86.3159365,72.2035248 87.5845805,72.4582708 C91.5027758,73.2439051 96.9612525,72.0955419 100.849043,73.2459109 C104.489921,74.3237342 106.491284,78.0369425 107.722173,81.4191814 C110.083381,87.9081858 106.153826,93.855604 101.428403,98.1685688 M140.081033,26 C136.670693,34.4002532 137.987774,44.8580348 137.356666,53.6758724 C136.844038,60.8431942 135.33712,71.5857526 128.972858,76.214531 C125.718361,78.5816138 119.79436,82.5598986 115.54187,81.4501943 C112.614539,80.6863848 112.302182,72.290096 108.455284,69.1469801 C104.09172,65.5823153 98.6429854,64.0160432 93.1491481,64.2578722 C90.7785381,64.3622683 85.9841367,64.3374908 83.9999331,66.1604584 C82.0157295,64.3374908 77.2216647,64.3622683 74.8510547,64.2578722 C69.3568808,64.0160432 63.9081467,65.5823153 59.5445817,69.1469801 C55.6976839,72.290096 55.3856641,80.6863848 52.4583326,81.4501943 C48.2058427,82.5598986 42.2818421,78.5816138 39.0270077,76.214531 C32.6624096,71.5857526 31.1561652,60.8431942 30.642864,53.6758724 C30.0120926,44.8580348 31.3291729,34.4002532 27.9188335,26 C26.2597768,26 27.3540339,42.1288693 27.3540339,42.1288693 L27.3540339,62.4851205 C27.3856735,77.7732046 36.935095,100.655445 58.1080116,109.393004 C63.2861266,111.52982 75.0153111,115 83.9999331,115 C92.9845551,115 104.71374,111.860188 109.891855,109.723371 C131.064771,100.985813 140.614193,77.7732046 140.646169,62.4851205 L140.646169,42.1288693 C140.646169,42.1288693 141.740089,26 140.081033,26" id="facial-hairbeard-light-path-1"/></defs><g id="Facial Hair/Beard Light" stroke="none" stroke-width="1" fill="none" fill-rule="evenodd"><mask id="facial-hairbeard-light-mask-2" fill="#fff"><use xlink:href="#facial-hairbeard-light-path-1"/></mask><use id="Lite-Beard" fill="#724133" xlink:href="#facial-hairbeard-light-path-1"/></g></g><g id="Hairstyle" fill="none" fill-rule="evenodd" transform="scale(1 1)"><g id="Hairstyle/Short Flat" stroke="none" stroke-width="1" fill="none" fill-rule="evenodd"><path d="M180.14998,39.9204083 C177.390206,37.1003988 174.185913,34.7068297 171.069252,32.3065503 C170.381566,31.777442 169.682843,31.2610833 169.010544,30.7118441 C168.857687,30.5870323 167.291999,29.4657388 167.104691,29.0530544 C166.653816,28.0602634 166.915042,28.8332916 166.977255,27.6485857 C167.055857,26.150508 170.11064,21.9193194 167.831176,20.9490079 C166.828413,20.522232 165.039628,21.6579526 164.077671,22.0330592 C162.196235,22.7671676 160.291721,23.3932399 158.346734,23.9330847 C159.278588,22.0763407 161.055333,18.3594977 157.71591,19.3543018 C155.114345,20.1293431 152.690052,22.1219709 150.075777,23.0594018 C150.940735,21.6415124 154.399901,17.2479341 151.274209,17.0023366 C150.301549,16.925839 147.471201,18.7503735 146.423952,19.1395717 C143.287223,20.3054888 140.083264,21.0590571 136.789999,21.6525844 C125.59203,23.6707114 112.497238,23.0953019 102.1368,28.1934632 C94.1494796,32.1236942 86.262502,38.2220278 81.648386,45.987539 C77.2011742,53.472559 75.537818,61.6641751 74.6069673,70.2412987 C73.9239644,76.535909 73.8684412,83.0425652 74.1878671,89.3599905 C74.2922241,91.4297869 74.5250203,100.970847 77.5319724,98.0813859 C79.0300967,96.641688 79.019059,90.8282073 79.3963495,88.8604076 C80.1472513,84.9452748 80.870057,81.0126951 82.122006,77.2227096 C84.3282191,70.5439339 86.9307879,63.4296587 92.4269209,58.8297383 C95.9539853,55.8782066 98.4307906,51.8889248 101.806002,48.9112229 C103.322188,47.5738572 102.165231,47.7130963 104.602902,47.888571 C106.240504,48.006337 107.885464,48.0512961 109.52641,48.0942421 C113.322394,48.1928837 117.124399,48.16772 120.921387,48.1811407 C128.56821,48.208653 136.179243,48.316689 143.818708,47.9164188 C147.213653,47.7385955 150.617965,47.6423024 154.00388,47.3282597 C155.895349,47.152785 159.251496,45.9405668 160.808488,46.8669256 C162.233362,47.7144383 163.71309,50.4817719 164.736257,51.615144 C167.153525,54.2935659 170.035717,56.3392052 172.862385,58.5354911 C178.756547,63.114945 181.732392,68.8666908 183.522515,76.023241 C185.305949,83.1532854 184.805905,89.76815 187.013456,96.78479 C187.401784,98.0184813 188.428965,100.14498 189.695296,98.2389151 C189.930434,97.8849461 189.869559,95.9390277 189.869559,94.819339 C189.869559,90.2995934 191.014141,86.9083772 190.999893,82.3591197 C190.943566,68.5271489 190.49637,50.4908308 180.14998,39.9204083 Z" id="Short-Hair" fill="#724133"/></g></g><g id="Accesories" fill="none" transform="translate(63.000000, 85.000000) scale(1 1)" fill-rule="evenodd"><g id="Accesories/Blank" stroke="none" stroke-width="1" fill="none" fill-rule="evenodd" fill-opacity="0"/></g></g></g></g></svg>