<svg viewBox="152.79999999999998 124.80000000000001 1274.4000000000003 950.3999999999996" fill="none" xmlns="http://www.w3.org/2000/svg" xmlns:xlink="http://www.w3.org/1999/xlink" overflow="visible" width="1180.0000000000002px" height="879.9999999999997px"><rect id="Blush Background Color" fill="#035aa6" x="152.79999999999998" y="124.80000000000001" width="1274.4000000000003" height="950.3999999999996"/><g id="Master/Close Ups/Working"><g id="Food" transform="translate(707 418) scale(1 1)"><g id="Food/Pizza"><g id="Group"><path id="Path 91" fill-rule="evenodd" clip-rule="evenodd" d="M108.517 22C108.517 22 62.3679 132.684 24.2444 187.02C-13.879 241.356 20.2314 261.481 40.2964 241.356C60.3614 221.232 106.511 185.008 152.66 158.846C198.81 132.684 234.927 98.4728 232.92 64.2613C214.862 48.1618 108.517 22 108.517 22Z" fill="#FFCE00"/><path id="Combined Shape" fill-rule="evenodd" clip-rule="evenodd" d="M99.65 14C99.65 14 61.5671 126.53 23.4843 180.785C-14.5986 235.04 11.4581 253.126 31.5017 233.031C51.5453 212.936 97.6456 176.766 143.746 150.643C147.686 148.41 151.553 146.119 155.329 143.774V172.747L155.338 173.192C155.571 179.089 160.413 183.799 166.353 183.799C172.442 183.799 177.377 178.851 177.377 172.747V128.627C181.978 125.108 186.336 121.506 190.406 117.834V146.624L190.416 146.978C190.599 150.143 193.216 152.653 196.419 152.653C199.74 152.653 202.432 149.954 202.432 146.624V105.812C216.622 89.9188 224.91 73.0587 223.92 56.1986C205.881 40.123 99.65 14 99.65 14Z" fill="#FFE05F"/><ellipse id="Oval Copy" cx="68.27" cy="107.43" rx="18.0726" ry="23.0927" transform="rotate(30 68.27 107.43)" fill="#FF7272"/><ellipse id="Oval Copy 2" cx="48.1896" cy="201.809" rx="18.0726" ry="23.0927" transform="rotate(40 48.1896 201.809)" fill="#FF7272"/><ellipse id="Oval Copy 5" cx="109.435" cy="155.624" rx="21.0847" ry="19.0766" transform="rotate(40 109.435 155.624)" fill="#FF7272"/><ellipse id="Oval Copy 4" cx="106.424" cy="39.1559" rx="18.0726" ry="23.0927" transform="rotate(40 106.424 39.1559)" fill="#FF7272"/><ellipse id="Oval Copy 3" cx="157.629" cy="91.3656" rx="23.0927" ry="29.1169" transform="rotate(40 157.629 91.3656)" fill="#FF7272"/><path id="Path 92" fill-rule="evenodd" clip-rule="evenodd" d="M87.2968 11.2614C88.8201 4.24339 95.7804 -0.218776 102.843 1.29492L107.05 2.20563C175.289 17.1237 219.921 34.1648 241.844 54.497C247.126 59.3957 247.411 67.6217 242.482 72.8702C237.552 78.1188 229.274 78.4025 223.992 73.5038C206.11 56.919 163.57 40.9073 97.3266 26.7095C90.264 25.1959 85.7735 18.2795 87.2968 11.2614Z" fill="#FFCE00"/></g></g></g><g id="Computer"><path id="Monitor" fill-rule="evenodd" clip-rule="evenodd" d="M255.556 475.339L709.308 254.513C731.655 243.638 758.587 252.937 769.463 275.284C772.448 281.419 774 288.153 774 294.976V636.214C774 661.086 759.807 683.777 737.444 694.661L283.692 915.487C261.345 926.362 234.413 917.063 223.537 894.716C220.552 888.581 219 881.847 219 875.024V533.786C219 508.914 233.192 486.223 255.556 475.339ZM724 636.214V302.969L277.436 520.298C272.275 522.81 269 528.046 269 533.786V867.03L715.564 649.702C720.622 647.241 723.868 642.162 723.996 636.558L724 636.214Z" fill="#E4EDF1"/><path id="Path" d="M746.983 286.224C748.31 288.951 749 291.944 749 294.976V636.214C749 651.52 740.266 665.484 726.504 672.181L272.752 893.007C262.82 897.841 250.85 893.708 246.017 883.776C244.69 881.049 244 878.056 244 875.024V533.785C244 518.48 252.734 504.516 266.496 497.819L720.248 276.993C730.18 272.159 742.15 276.292 746.983 286.224Z" fill="#6E8B9A"/><path id="Path_2" d="M709 636.214V326.951L284 533.785L284 843.047L709 636.214Z" fill="#001D2D"/><path id="Keyboard" fill-rule="evenodd" clip-rule="evenodd" d="M424 897.21C424 889.529 428.398 882.527 435.318 879.193L708.45 747.57C713.195 745.283 718.651 744.96 723.633 746.673L827.994 782.541C844.893 788.349 846.273 811.715 830.176 819.472L587.241 936.543C583.908 938.15 580.194 938.8 576.514 938.422L441.956 924.595C431.755 923.547 424 914.954 424 904.7V897.21Z" fill="#E4EDF1"/><g id="code"><path id="Path_3" fill-rule="evenodd" clip-rule="evenodd" d="M673.387 411.987L642.034 427.29C637.071 429.712 631.084 427.653 628.661 422.689C626.239 417.726 628.298 411.739 633.262 409.316L664.614 394.013C669.577 391.591 675.564 393.651 677.987 398.614C680.409 403.577 678.35 409.564 673.387 411.987ZM540.485 476.855L606.088 444.835C611.051 442.413 613.11 436.425 610.688 431.462C608.265 426.499 602.278 424.439 597.315 426.862L531.712 458.882C526.749 461.305 524.69 467.292 527.112 472.255C529.535 477.218 535.522 479.278 540.485 476.855ZM504.538 494.401L438.936 526.421C433.973 528.844 427.985 526.784 425.563 521.821C423.14 516.858 425.2 510.87 430.163 508.448L495.766 476.427C500.729 474.005 506.716 476.065 509.139 481.028C511.561 485.991 509.502 491.978 504.538 494.401ZM402.989 543.966L337.387 575.987C332.423 578.409 326.436 576.35 324.014 571.386C321.591 566.423 323.651 560.436 328.614 558.013L394.217 525.993C399.18 523.571 405.167 525.63 407.59 530.593C410.012 535.557 407.952 541.544 402.989 543.966Z" fill="white"/><path id="Path Copy" fill-rule="evenodd" clip-rule="evenodd" d="M469.655 566.103L421.999 589.295C417.033 591.712 411.048 589.645 408.632 584.68C406.215 579.714 408.281 573.729 413.247 571.312L460.903 548.119C465.869 545.702 471.854 547.769 474.271 552.735C476.688 557.701 474.621 563.686 469.655 566.103ZM386.032 606.799L338.376 629.992C333.41 632.409 327.425 630.342 325.009 625.376C322.592 620.41 324.658 614.425 329.624 612.008L377.28 588.816C382.246 586.399 388.231 588.465 390.648 593.431C393.065 598.397 390.998 604.382 386.032 606.799Z" fill="white"/><path id="Path Copy_2" d="M501.392 549.984L546.392 527.984C551.354 525.558 553.41 519.57 550.984 514.608C548.558 509.646 542.57 507.591 537.608 510.016L492.608 532.016C487.647 534.442 485.591 540.431 488.016 545.392C490.442 550.354 496.431 552.41 501.392 549.984Z" fill="#FF8282"/><path id="Path Copy_3" fill-rule="evenodd" clip-rule="evenodd" d="M673.361 465.999L660.054 472.447C655.084 474.855 649.102 472.778 646.694 467.808C644.286 462.838 646.363 456.857 651.333 454.449L664.64 448.001C669.61 445.593 675.591 447.669 678 452.64C680.408 457.61 678.331 463.591 673.361 465.999ZM624.057 489.889L576.361 512.999C571.391 515.408 565.409 513.331 563.001 508.361C560.593 503.39 562.67 497.409 567.64 495.001L615.336 471.89C620.306 469.482 626.287 471.559 628.696 476.529C631.104 481.499 629.027 487.481 624.057 489.889Z" fill="#A37BFF"/><path id="Path Copy 2" fill-rule="evenodd" clip-rule="evenodd" d="M441.367 633.996L422.031 643.383C417.062 645.795 411.079 643.722 408.668 638.754C406.256 633.785 408.328 627.803 413.297 625.391L432.633 616.004C437.602 613.592 443.585 615.665 445.996 620.633C448.408 625.601 446.336 631.584 441.367 633.996ZM386.046 660.851L338.367 683.996C333.399 686.408 327.416 684.335 325.004 679.367C322.592 674.399 324.665 668.416 329.633 666.004L377.312 642.859C382.281 640.447 388.264 642.519 390.676 647.488C393.087 652.456 391.015 658.439 386.046 660.851Z" fill="#26A9FF"/><path id="Path Copy 2_2" d="M480.409 615.976L527.98 592.608C532.937 590.173 534.981 584.18 532.546 579.223C530.111 574.266 524.119 572.222 519.162 574.657L471.591 598.024C466.634 600.46 464.59 606.452 467.025 611.409C469.46 616.366 475.452 618.411 480.409 615.976Z" fill="#FF8282"/><path id="Path Copy 3" fill-rule="evenodd" clip-rule="evenodd" d="M660.008 580.517L576.432 621.31C571.469 623.733 565.481 621.673 563.059 616.71C560.636 611.746 562.696 605.759 567.659 603.337L651.235 562.544C656.198 560.121 662.185 562.181 664.608 567.144C667.03 572.107 664.971 578.094 660.008 580.517ZM456.909 679.648L540.485 638.855C545.448 636.433 547.508 630.446 545.085 625.482C542.663 620.519 536.676 618.46 531.712 620.882L448.136 661.675C443.173 664.098 441.114 670.085 443.536 675.048C445.959 680.011 451.946 682.071 456.909 679.648ZM337.387 737.987L420.963 697.194C425.926 694.771 427.985 688.784 425.563 683.821C423.14 678.858 417.153 676.798 412.19 679.22L328.614 720.013C323.651 722.436 321.591 728.423 324.014 733.386C326.436 738.35 332.423 740.409 337.387 737.987Z" fill="white"/><path id="Path Copy 4" fill-rule="evenodd" clip-rule="evenodd" d="M552.274 687.396L504.619 710.591C499.653 713.008 493.668 710.941 491.251 705.975C488.834 701.01 490.9 695.025 495.866 692.608L543.521 669.413C548.487 666.996 554.472 669.062 556.889 674.028C559.306 678.994 557.24 684.979 552.274 687.396ZM420.998 751.291L468.653 728.096C473.619 725.679 475.685 719.694 473.268 714.728C470.851 709.762 464.866 707.696 459.9 710.113L412.245 733.308C407.279 735.725 405.213 741.71 407.63 746.676C410.047 751.642 416.032 753.708 420.998 751.291ZM337.377 791.992L385.032 768.797C389.998 766.38 392.064 760.395 389.647 755.429C387.23 750.463 381.245 748.397 376.279 750.814L328.624 774.008C323.658 776.426 321.592 782.411 324.009 787.376C326.426 792.342 332.411 794.409 337.377 791.992Z" fill="#26A9FF"/></g></g><g id="Plants" transform="translate(327 870) scale(0.4666666666666667 0.4666666666666667)"><g id="Plants/Fern"><g id="Group"><path id="Star Copy 2" d="M188 158.388V158.388C182.715 169.416 166.323 166.819 164.704 154.698V154.698V154.698C156.269 163.553 141.482 156.018 143.688 143.99V143.99V143.99C132.93 149.805 121.195 138.07 127.01 127.312V127.312V127.312C114.982 129.518 107.447 114.731 116.302 106.296V106.296V106.296C104.181 104.677 101.584 88.2855 112.612 83V83V83C101.584 77.7145 104.181 61.3229 116.302 59.7039V59.7039V59.7039C107.447 51.2693 114.982 36.4822 127.01 38.6882V38.6882V38.6882C121.195 27.9302 132.93 16.1951 143.688 22.0101V22.0101V22.0101C141.482 9.98163 156.269 2.44722 164.704 11.302V11.302V11.302C166.323 -0.81938 182.715 -3.41556 188 7.6123V7.6123V7.6123C193.285 -3.41556 209.677 -0.81938 211.296 11.302V11.302V11.302C219.731 2.44722 234.518 9.98162 232.312 22.0101V22.0101V22.0101C243.07 16.1951 254.805 27.9302 248.99 38.6882V38.6882V38.6882C261.018 36.4822 268.553 51.2693 259.698 59.7039V59.7039V59.7039C271.819 61.3229 274.416 77.7145 263.388 83V83V83C274.416 88.2855 271.819 104.677 259.698 106.296V106.296V106.296C268.553 114.731 261.018 129.518 248.99 127.312V127.312V127.312C254.805 138.07 243.07 149.805 232.312 143.99V143.99V143.99C234.518 156.018 219.731 163.553 211.296 154.698V154.698V154.698C209.677 166.819 193.285 169.416 188 158.388V158.388Z" fill="#42AB99"/><path id="Star Copy" d="M94 196.162V196.162C89.6418 205.255 76.1259 203.114 74.791 193.119V193.119V193.119C67.8361 200.421 55.6433 194.208 57.4622 184.29V184.29V184.29C48.5916 189.085 38.9152 179.408 43.7101 170.538V170.538V170.538C33.7919 172.357 27.5793 160.164 34.8806 153.209V153.209V153.209C24.8858 151.874 22.7451 138.358 31.8382 134V134V134C22.7451 129.642 24.8858 116.126 34.8806 114.791V114.791V114.791C27.5793 107.836 33.7919 95.6433 43.7101 97.4622V97.4622V97.4622C38.9152 88.5915 48.5915 78.9152 57.4622 83.7101V83.7101V83.7101C55.6433 73.7919 67.8361 67.5793 74.791 74.8806V74.8806V74.8806C76.1259 64.8858 89.6418 62.7451 94 71.8382V71.8382V71.8382C98.3582 62.7451 111.874 64.8858 113.209 74.8806V74.8806V74.8806C120.164 67.5793 132.357 73.7919 130.538 83.7101V83.7101V83.7101C139.408 78.9152 149.085 88.5916 144.29 97.4622V97.4622V97.4622C154.208 95.6433 160.421 107.836 153.119 114.791V114.791V114.791C163.114 116.126 165.255 129.642 156.162 134V134V134C165.255 138.358 163.114 151.874 153.119 153.209V153.209V153.209C160.421 160.164 154.208 172.357 144.29 170.538V170.538V170.538C149.085 179.408 139.408 189.085 130.538 184.29V184.29V184.29C132.357 194.208 120.164 200.421 113.209 193.119V193.119V193.119C111.874 203.114 98.3582 205.255 94 196.162V196.162Z" fill="#59BCAB"/><path id="Star" d="M150 272.388V272.388C144.715 283.416 128.323 280.819 126.704 268.698V268.698V268.698C118.269 277.553 103.482 270.018 105.688 257.99V257.99V257.99C94.9302 263.805 83.1951 252.07 89.0101 241.312V241.312V241.312C76.9816 243.518 69.4472 228.731 78.302 220.296V220.296V220.296C66.1806 218.677 63.5844 202.285 74.6123 197V197V197C63.5844 191.715 66.1806 175.323 78.302 173.704V173.704V173.704C69.4472 165.269 76.9816 150.482 89.0101 152.688V152.688V152.688C83.1951 141.93 94.9302 130.195 105.688 136.01V136.01V136.01C103.482 123.982 118.269 116.447 126.704 125.302V125.302V125.302C128.323 113.181 144.715 110.584 150 121.612V121.612V121.612C155.285 110.584 171.677 113.181 173.296 125.302V125.302V125.302C181.731 116.447 196.518 123.982 194.312 136.01V136.01V136.01C205.07 130.195 216.805 141.93 210.99 152.688V152.688V152.688C223.018 150.482 230.553 165.269 221.698 173.704V173.704V173.704C233.819 175.323 236.416 191.715 225.388 197V197V197C236.416 202.285 233.819 218.677 221.698 220.296V220.296V220.296C230.553 228.731 223.018 243.518 210.99 241.312V241.312V241.312C216.805 252.07 205.07 263.805 194.312 257.99V257.99V257.99C196.518 270.018 181.731 277.553 173.296 268.698V268.698V268.698C171.677 280.819 155.285 283.416 150 272.388V272.388Z" fill="#82D1C4"/><path id="Rectangle" fill-rule="evenodd" clip-rule="evenodd" d="M80 240H220V254.894C220 269.307 214.037 283.077 203.526 292.939V292.939C198.691 297.475 192.31 300 185.68 300H114.32C107.69 300 101.309 297.475 96.4735 292.939V292.939C85.9627 283.077 80 269.307 80 254.894V240Z" fill="#E4EDF1"/><path id="Combined Shape" fill-rule="evenodd" clip-rule="evenodd" d="M199 253C199 250.791 197.209 249 195 249H176L175.8 249.005C173.684 249.109 172 250.858 172 253C172 255.209 173.791 257 176 257H195L195.2 256.995C197.316 256.891 199 255.142 199 253ZM203 267C203 264.791 201.209 263 199 263H190L189.8 263.005C187.684 263.109 186 264.858 186 267C186 269.209 187.791 271 190 271H199L199.2 270.995C201.316 270.891 203 269.142 203 267ZM176 269C178.209 269 180 270.791 180 273C180 275.142 178.316 276.891 176.2 276.995L176 277H163C160.791 277 159 275.209 159 273C159 270.858 160.684 269.109 162.8 269.005L163 269H176ZM187 287C187 284.791 185.209 283 183 283H170L169.8 283.005C167.684 283.109 166 284.858 166 287C166 289.209 167.791 291 170 291H183L183.2 290.995C185.316 290.891 187 289.142 187 287Z" fill="#B9CCD4"/></g></g></g><g id="Master/Character/Bust" transform="matrix(-1 0 0 1 1664 0) scale(1 1)"><g id="Master/Character/Bust"><g id="Bodies" transform="translate(290 534) scale(1 1)"><g id="Bodies/Blue A"><g id="Patterns"><path id="Mask" fill-rule="evenodd" clip-rule="evenodd" d="M362.086 371.318C382.619 359.612 401.825 343.91 412.196 322.671C422.566 301.43 422.346 273.901 407.079 255.857C393.928 240.311 372.8 234.442 352.814 230.543C287.28 217.761 219.322 217.53 153.704 229.867C135.359 233.316 116.444 238.106 102.232 250.207C80.6574 268.576 74.8264 301.471 84.5594 328.083C94.2924 354.695 117.352 374.983 143.395 386.149C168.918 397.092 197.103 400.083 224.642 400.132C254.423 400.186 283.106 400.179 312.073 392.105C329.507 387.247 346.361 380.282 362.086 371.318" fill="#7192F0"/><mask id="mask0_103_411308d3a86ab-08da-4755-8af1-9cd7960663d3" style="mask-type:alpha" maskUnits="userSpaceOnUse" x="80" y="220" width="340" height="181" fill="#ffffff"><path id="Mask_2" fill-rule="evenodd" clip-rule="evenodd" d="M362.086 371.318C382.619 359.612 401.825 343.91 412.196 322.671C422.566 301.43 422.346 273.901 407.079 255.857C393.928 240.311 372.8 234.442 352.814 230.543C287.28 217.761 219.322 217.53 153.704 229.867C135.359 233.316 116.444 238.106 102.232 250.207C80.6574 268.576 74.8264 301.471 84.5594 328.083C94.2924 354.695 117.352 374.983 143.395 386.149C168.918 397.092 197.103 400.083 224.642 400.132C254.423 400.186 283.106 400.179 312.073 392.105C329.507 387.247 346.361 380.282 362.086 371.318" fill="#ffffff"/></mask><g mask="url(#mask0_103_411308d3a86ab-08da-4755-8af1-9cd7960663d3)"><g id="Patterns_2"><g id="Group"><path id="Path 51" d="M527.949 211.503L528.051 212.497L28.0507 263.497L27.9492 262.503L527.949 211.503Z" fill="white"/><path id="Path 52" d="M28.0596 295.504L528.06 355.504L527.94 356.496L27.9404 296.496L28.0596 295.504Z" fill="white"/><path id="Path 53" d="M28.0477 325.502L528.048 373.502L527.952 374.498L27.9521 326.498L28.0477 325.502Z" fill="white"/><path id="Path 54" d="M28.0138 383.5L528.014 397.5L527.986 398.5L27.9858 384.5L28.0138 383.5Z" fill="white"/><path id="Path 59" d="M28.0199 283.5L528.02 303.5L527.98 304.5L27.98 284.5L28.0199 283.5Z" fill="white"/></g></g></g></g><g id="Patterns_3"><path id="Mask_3" fill-rule="evenodd" clip-rule="evenodd" d="M173 432.67C179.305 415.74 194.413 407.054 218.304 403.364C240.694 399.907 280.799 397.842 303.623 399.213C321.21 400.27 334.314 404.493 344.813 414.666C371.433 440.462 328.228 465.612 298.732 474.4C268.904 483.288 224.217 483.556 196.974 470.244C180.424 462.157 167.512 447.407 173 432.67" fill="#418FE7"/><mask id="mask1_103_411308d3a86ab-08da-4755-8af1-9cd7960663d3" style="mask-type:alpha" maskUnits="userSpaceOnUse" x="171" y="398" width="183" height="83" fill="#ffffff"><path id="Mask_4" fill-rule="evenodd" clip-rule="evenodd" d="M173 432.67C179.305 415.74 194.413 407.054 218.304 403.364C240.694 399.907 280.799 397.842 303.623 399.213C321.21 400.27 334.314 404.493 344.813 414.666C371.433 440.462 328.228 465.612 298.732 474.4C268.904 483.288 224.217 483.556 196.974 470.244C180.424 462.157 167.512 447.407 173 432.67" fill="#ffffff"/></mask><g mask="url(#mask1_103_411308d3a86ab-08da-4755-8af1-9cd7960663d3)"><g id="Patterns_4"><g id="Group_2"><path id="Path 49" d="M358.072 209.012L351.088 500.012L350.088 499.988L357.072 208.988L358.072 209.012Z" fill="white"/><path id="Path 50" d="M325.479 499.976L324.481 500.024L310.513 209.024L311.511 208.976L325.479 499.976Z" fill="white"/><path id="Path 51_2" d="M305.107 499.949L304.113 500.051L274.431 209.051L275.425 208.949L305.107 499.949Z" fill="white"/><path id="Path 52_2" d="M256.218 209.06L221.298 500.06L220.305 499.94L255.225 208.94L256.218 209.06Z" fill="white"/><path id="Path 53_2" d="M238.76 209.048L210.824 500.048L209.828 499.952L237.764 208.952L238.76 209.048Z" fill="white"/><path id="Path 54_2" d="M205.006 209.014L196.858 500.014L195.858 499.986L204.006 208.986L205.006 209.014Z" fill="white"/><path id="Path 55" d="M176.486 499.954L175.49 500.046L148.718 209.046L149.714 208.954L176.486 499.954Z" fill="white"/><path id="Path 59_2" d="M263.206 209.02L251.566 500.02L250.566 499.98L262.206 208.98L263.206 209.02Z" fill="white"/></g></g></g></g><g id="Patterns_5"><path id="Mask_5" fill-rule="evenodd" clip-rule="evenodd" d="M120.01 191.589C90.6146 164.371 80.3056 116.785 100.238 82.034C117.951 51.15 154.034 35.558 188.992 28.808C208.597 25.023 229.563 23.493 247.95 31.276C264.428 38.249 277.253 52.198 285.704 67.969C300.706 95.966 302.661 130.622 290.903 160.128C281.517 183.679 260.725 209.613 236.014 218.325C215.838 225.439 184.192 221.141 164.288 215.692C147.923 211.21 132.495 203.149 120.01 191.589" fill="#418FE7"/><mask id="mask2_103_411308d3a86ab-08da-4755-8af1-9cd7960663d3" style="mask-type:alpha" maskUnits="userSpaceOnUse" x="89" y="25" width="210" height="198" fill="#ffffff"><path id="Mask_6" fill-rule="evenodd" clip-rule="evenodd" d="M120.01 191.589C90.6146 164.371 80.3056 116.785 100.238 82.034C117.951 51.15 154.034 35.558 188.992 28.808C208.597 25.023 229.563 23.493 247.95 31.276C264.428 38.249 277.253 52.198 285.704 67.969C300.706 95.966 302.661 130.622 290.903 160.128C281.517 183.679 260.725 209.613 236.014 218.325C215.838 225.439 184.192 221.141 164.288 215.692C147.923 211.21 132.495 203.149 120.01 191.589" fill="#ffffff"/></mask><g mask="url(#mask2_103_411308d3a86ab-08da-4755-8af1-9cd7960663d3)"><g id="Patterns_6"><g id="Group_3"><path id="Path 48" d="M590.465 263.074L589.772 263.796L229.148 -82.6867L229.841 -83.4078L590.465 263.074Z" fill="white"/><path id="Path 49_2" d="M212.178 -65.7146L557.246 296.324L556.522 297.014L211.454 -65.0247L212.178 -65.7146Z" fill="white"/><path id="Path 50_2" d="M526.108 327.412L525.436 328.152L154.912 -8.43099L155.584 -9.17118L526.108 327.412Z" fill="white"/><path id="Path 51_3" d="M501.339 352.143L500.707 352.918L111.091 35.4271L111.723 34.6519L501.339 352.143Z" fill="white"/><path id="Path 52_3" d="M88.4661 58.0651L399.593 454.045L398.807 454.663L87.6798 58.683L88.4661 58.0651Z" fill="white"/><path id="Path 53_3" d="M67.2453 79.2691L386.858 466.764L386.086 467.4L66.4739 79.9054L67.2453 79.2691Z" fill="white"/><path id="Path 54_3" d="M26.2107 120.256L369.865 483.709L369.138 484.396L25.4841 120.943L26.2107 120.256Z" fill="white"/><path id="Path 55_2" d="M345.072 508.417L344.433 509.186L-41.6475 188.159L-41.0081 187.39L345.072 508.417Z" fill="white"/><path id="Path 56" d="M304.087 549.453L303.394 550.174L-57.2307 203.691L-56.5379 202.97L304.087 549.453Z" fill="white"/><path id="Path 57" d="M281.458 572.079L280.767 572.802L-80.5645 227.027L-79.8731 226.304L281.458 572.079Z" fill="white"/><path id="Path 59_3" d="M96.9252 49.5496L436.336 417.245L435.602 417.923L96.1904 50.2279L96.9252 49.5496Z" fill="white"/></g></g></g></g><g id="Patterns_7"><path id="Mask_7" fill-rule="evenodd" clip-rule="evenodd" d="M300.791 200.575C287.995 180.96 288.228 153.025 303.161 134.985C318.095 116.944 347.343 111.946 366.261 125.752C377.633 134.052 384.324 147.57 387.099 161.372C389.715 174.388 389.123 188.262 383.908 200.472C378.092 214.087 363.802 230.873 347.739 229.49C329.39 227.909 310.723 215.801 300.791 200.575" fill="#64BBF6"/><mask id="mask3_103_411308d3a86ab-08da-4755-8af1-9cd7960663d3" style="mask-type:alpha" maskUnits="userSpaceOnUse" x="291" y="117" width="98" height="113" fill="#ffffff"><path id="Mask_8" fill-rule="evenodd" clip-rule="evenodd" d="M300.791 200.575C287.995 180.96 288.228 153.025 303.161 134.985C318.095 116.944 347.343 111.946 366.261 125.752C377.633 134.052 384.324 147.57 387.099 161.372C389.715 174.388 389.123 188.262 383.908 200.472C378.092 214.087 363.802 230.873 347.739 229.49C329.39 227.909 310.723 215.801 300.791 200.575" fill="#ffffff"/></mask><g mask="url(#mask3_103_411308d3a86ab-08da-4755-8af1-9cd7960663d3)"><g id="Patterns_8"><g id="Group_4"><path id="Path 51_4" d="M286.252 89.0507L287.247 88.9492L305.097 263.949L304.102 264.051L286.252 89.0507Z" fill="white"/><path id="Path 52_4" d="M315.653 263.94L336.653 88.9404L337.646 89.0596L316.646 264.06L315.653 263.94Z" fill="white"/><path id="Path 53_4" d="M326.152 263.952L342.952 88.9522L343.947 89.0478L327.147 264.048L326.152 263.952Z" fill="white"/><path id="Path 54_4" d="M346.45 263.986L351.35 88.986L352.35 89.014L347.45 264.014L346.45 263.986Z" fill="white"/><path id="Path 55_3" d="M363.602 89.0458L364.598 88.9542L380.698 263.954L379.702 264.046L363.602 89.0458Z" fill="white"/><path id="Path 56_2" d="M383.9 89.01L384.9 88.99L388.4 263.99L387.4 264.01L383.9 89.01Z" fill="white"/><path id="Path 59_4" d="M311.45 263.98L318.45 88.98L319.449 89.02L312.449 264.02L311.45 263.98Z" fill="white"/></g></g></g></g><g id="Patterns_9"><path id="Mask_9" fill-rule="evenodd" clip-rule="evenodd" d="M298.869 96.9474C286.401 79.4724 287.029 53.7874 300.296 36.9114C313.563 20.0364 337.336 17.3594 357.306 25.2354C377.274 33.1114 389.812 51.8644 388.109 73.2634C384.425 119.556 325.635 134.462 298.869 96.9474" fill="#7192F0"/><mask id="mask4_103_411308d3a86ab-08da-4755-8af1-9cd7960663d3" style="mask-type:alpha" maskUnits="userSpaceOnUse" x="289" y="21" width="100" height="98" fill="#ffffff"><path id="Mask_10" fill-rule="evenodd" clip-rule="evenodd" d="M298.869 96.9474C286.401 79.4724 287.029 53.7874 300.296 36.9114C313.563 20.0364 337.336 17.3594 357.306 25.2354C377.274 33.1114 389.812 51.8644 388.109 73.2634C384.425 119.556 325.635 134.462 298.869 96.9474" fill="#ffffff"/></mask><g mask="url(#mask4_103_411308d3a86ab-08da-4755-8af1-9cd7960663d3)"><g id="Patterns_10"><g id="Group_5"><path id="Path 49_3" d="M273.012 24.0161L500.012 29.4641L499.988 30.4639L272.988 25.0159L273.012 24.0161Z" fill="white"/><path id="Path 50_3" d="M499.976 49.4406L500.024 50.4394L273.024 61.3354L272.976 60.3366L499.976 49.4406Z" fill="white"/><path id="Path 51_5" d="M499.949 65.3326L500.051 66.3274L273.051 89.4814L272.949 88.4866L499.949 65.3326Z" fill="white"/><path id="Path 52_5" d="M273.06 103.47L500.06 130.71L499.94 131.702L272.94 104.462L273.06 103.47Z" fill="white"/><path id="Path 53_5" d="M273.048 117.088L500.048 138.88L499.952 139.876L272.952 118.084L273.048 117.088Z" fill="white"/><path id="Path 59_5" d="M273.02 98.0184L500.02 107.098L499.98 108.098L272.98 99.0176L273.02 98.0184Z" fill="white"/></g></g></g></g></g></g><g id="Heads" transform="translate(508 359) scale(1 1)"><g id="Heads/Tall"><g id="Patterns"><path id="Mask" fill-rule="evenodd" clip-rule="evenodd" d="M29.2136 68.5071C16.4007 105.079 11.8454 193.02 100.988 193.02C190.13 193.02 188.236 66.4603 163.724 33.8335C142.097 5.04756 60.3079 -20.2505 29.2136 68.5071" fill="#64BBF6"/><mask id="mask0_103_43752820ed263-523d-4ee8-8a63-a2d3a39e7496" style="mask-type:alpha" maskUnits="userSpaceOnUse" x="22" y="7" width="157" height="187" fill="#ffffff"><path id="Mask_2" fill-rule="evenodd" clip-rule="evenodd" d="M29.2136 68.5071C16.4007 105.079 11.8454 193.02 100.988 193.02C190.13 193.02 188.236 66.4603 163.724 33.8335C142.097 5.04756 60.3079 -20.2505 29.2136 68.5071" fill="#ffffff"/></mask><g mask="url(#mask0_103_43752820ed263-523d-4ee8-8a63-a2d3a39e7496)"><g id="Patterns_2"><g id="Group"><path id="Path 4" d="M293.171 12.37C246.069 73.5389 219.977 119.387 214.895 149.861C207.188 196.083 113.277 265.514 49.346 271.868L47.418 272.041L47.3382 271.044C110.871 265.956 206.207 195.883 213.909 149.696C218.974 119.32 244.661 73.9693 290.969 13.5941L292.379 11.7599L293.171 12.37Z" fill="white"/><path id="Path 5" d="M286.785 6.03226C245.121 53.1406 211.577 100.293 186.154 147.49C160.901 194.368 108.214 233.902 28.1085 266.114L25.6727 267.088L25.3032 266.159C106.578 233.85 159.895 194.128 185.273 147.016C210.445 100.286 243.56 53.6065 284.617 6.97763L286.036 5.36976L286.785 6.03226Z" fill="white"/><path id="Path 6" fill-rule="evenodd" clip-rule="evenodd" d="M123.241 161.144C146.684 138.37 167.029 124.949 174.296 129.435C181.624 133.958 179.922 144.858 171.043 159.211L170.49 160.094C162.108 173.339 148.46 188.126 135.028 198.595C118.984 211.1 106.991 219.347 98.0224 223.529L97.5642 223.741C92.406 226.091 88.4368 226.949 85.6892 226.151C82.5177 225.229 81.0975 222.173 81.5052 216.997C82.2813 207.145 99.9667 183.879 122.529 161.837L123.241 161.144ZM134.413 197.806C147.756 187.407 161.326 172.705 169.645 159.56C178.734 145.197 180.567 134.481 173.77 130.286C167.069 126.149 146.52 139.798 123.228 162.552L122.559 163.208C100.506 184.87 83.2436 207.663 82.5021 217.076C82.1276 221.831 83.3332 224.424 85.9682 225.19C88.4998 225.926 92.4203 225.038 97.5998 222.623C106.069 218.673 117.33 211.016 132.226 199.504L134.413 197.806Z" fill="white"/><path id="Path 6_2" fill-rule="evenodd" clip-rule="evenodd" d="M128.371 170.122C143.672 155.121 156.576 145.983 160.842 148.385C165.243 150.863 163.525 157.722 157.189 167.038C151.568 175.302 142.752 184.737 134.276 191.603C124.155 199.8 116.645 205.276 111.12 208.199C107.774 209.968 105.259 210.732 103.56 210.371C101.563 209.946 100.818 208.068 101.331 204.879C102.282 198.959 113.903 184.307 128.371 170.122ZM133.646 190.825C142.048 184.02 150.797 174.657 156.362 166.476C162.381 157.626 163.968 151.292 160.351 149.256C152.621 144.904 104.382 192.199 102.318 205.038C101.879 207.767 102.41 209.104 103.768 209.393C105.166 209.69 107.502 208.981 110.652 207.315L110.975 207.142C116.071 204.393 122.895 199.462 131.896 192.237L133.646 190.825Z" fill="white"/><path id="Path 7" d="M180.588 105.405L178.287 106.96L166.085 115.104C141.534 131.498 126.592 142.993 109.549 160.037C97.0723 172.513 87.0156 185.46 74.2935 204.324L62.6305 221.838C62.0386 222.722 61.5213 223.492 61.1205 224.085L60.8195 224.528C56.7246 230.541 53.4354 235.038 50.298 238.82C42.9072 247.727 36.3646 252.522 29.3607 253.533L28.9851 253.583L28.8612 252.591C35.6996 251.738 42.1527 247.07 49.5284 238.181L50.1983 237.366C53.0015 233.919 55.9681 229.853 59.559 224.601L61.1883 222.194C64.571 217.154 71.594 206.552 71.4656 206.744L72.1376 205.739C85.5278 185.747 95.8795 172.292 108.842 159.329L110.368 157.813C126.591 141.788 141.207 130.559 164.434 115.005L175.717 107.482C176.986 106.632 178.123 105.867 179.238 105.112L181.559 103.534C185.574 100.789 189.022 98.3522 192.288 95.9396C200.355 89.9797 207.143 84.2619 213.356 78.0493C232.213 59.1921 238.808 18.0489 233.058 -45.3571L232.88 -47.2853L233.876 -47.3788C239.961 17.3966 233.385 59.4337 214.063 78.7564C207.812 85.007 200.987 90.7562 192.882 96.7439L191.644 97.6531C188.317 100.084 184.759 102.572 180.588 105.405Z" fill="white"/><path id="Path 10" d="M226.805 -54.4442C229.717 -19.136 223.725 13.0161 208.826 42.0015C203.637 52.0961 194.961 62.057 182.331 73.0394L180.186 74.8858C172.308 81.6132 165.6 86.7343 149.181 98.6974L136.374 108.009C127.674 114.354 121.804 118.74 115.806 123.421L114.987 124.061C93.1337 141.178 77.7379 156.326 66.9218 172.649L66.4611 173.35C42.667 209.774 20.5306 226.758 0.00152625 224.194L-0.620076 224.111L-0.477203 223.121C19.5277 226.009 41.3399 209.635 64.9091 173.892L65.6239 172.803C76.3795 156.338 91.6879 141.131 113.434 124.009L115.6 122.313C122.559 116.893 129.431 111.804 140.83 103.532L149.754 97.0424C166.269 84.9974 172.648 80.074 180.972 72.8934C193.897 61.7452 202.72 51.692 207.936 41.5444C222.594 13.0292 228.581 -18.5706 225.896 -53.2654L225.808 -54.362L226.805 -54.4442Z" fill="white"/><path id="Path 11" d="M215.445 -65.3038L216.111 -64.5583C203.518 -53.2992 197.256 -40.6775 191.739 -19.4181L191.106 -16.927C190.823 -15.798 190.533 -14.6152 190.206 -13.2641L188.34 -5.48478L187.925 -3.77327C184.212 11.4101 181.213 20.7257 176.312 30.6317C169.75 43.8933 160.606 55.4372 147.649 65.934C116.338 91.2996 90.0619 121.142 62.2017 159.421L59.4552 163.222C53.4885 171.543 41.4977 188.534 39.2514 191.615C26.4944 209.111 9.48542 216.089 -11.6971 212.516L-12.3402 212.405L-12.165 211.42C8.72891 215.14 25.4452 208.525 38.0623 191.543L39.1054 190.109C42.8103 184.949 55.5148 166.949 60.2389 160.422L60.4082 160.188C88.3529 121.647 114.641 91.5922 145.914 66.0564L147.02 65.157C159.864 54.7519 168.916 43.3221 175.415 30.1882C180.367 20.1804 183.367 10.7617 187.16 -4.8609L189.473 -14.4852C189.668 -15.2829 189.851 -16.0261 190.029 -16.7428L190.56 -18.8476L190.993 -20.517C196.43 -41.1669 202.678 -53.7055 214.951 -64.8584L215.445 -65.3038Z" fill="white"/><path id="Path 12" fill-rule="evenodd" clip-rule="evenodd" d="M12.3773 147.206C21.2433 140.374 29.8803 136.296 36.0578 136.349C43.2794 136.411 46.7744 141.942 45.5688 152.899C43.2057 174.378 34.8113 189.468 22.8826 196.054C11.9114 202.112 -0.780379 200.049 -10.102 190.728C-18.7217 182.108 -6.95715 162.104 12.3773 147.206ZM22.3992 195.179C34.0135 188.766 42.2446 173.97 44.5748 152.79C45.7223 142.36 42.5913 137.405 36.0492 137.349C30.1474 137.298 21.6923 141.291 12.9876 147.998C-5.90297 162.554 -17.3675 182.048 -9.39489 190.021C-0.382513 199.033 11.8257 201.018 22.3992 195.179Z" fill="white"/><path id="Path 12_2" fill-rule="evenodd" clip-rule="evenodd" d="M15.6688 154.815C21.283 150.485 26.7538 147.894 30.6905 147.921C35.36 147.953 37.6204 151.536 36.8389 158.528C35.3223 172.096 29.9952 181.652 22.4268 185.84C15.4455 189.703 7.37434 188.405 1.46341 182.494C-4.06961 176.961 3.40811 164.271 15.6688 154.815ZM21.9426 184.965C29.1978 180.95 34.3618 171.687 35.8451 158.417C36.5675 151.954 34.6717 148.949 30.6836 148.921C27.0223 148.896 21.7328 151.401 16.2795 155.607C4.46302 164.721 -2.71491 176.902 2.17051 181.787C7.77163 187.388 15.3586 188.609 21.9426 184.965Z" fill="white"/><path id="Path 12_3" fill-rule="evenodd" clip-rule="evenodd" d="M18.762 164.012C20.8882 162.373 22.9685 161.389 24.5118 161.402C26.4535 161.417 27.4057 162.925 27.101 165.678C25.9815 175.791 18.6246 179.857 13.4869 174.719C11.2339 172.466 14.0899 167.613 18.762 164.012ZM14.194 174.012C18.659 178.477 25.0703 174.934 26.1071 165.568C26.3533 163.343 25.7653 162.412 24.5039 162.402C23.2361 162.392 21.3375 163.289 19.3725 164.804C15.1444 168.063 12.5883 172.406 14.194 174.012Z" fill="white"/><path id="Path 13" d="M207.323 -73.4205L207.995 -72.6806C183.721 -50.6073 165.999 -30.9633 153.199 -12.6583C143.185 1.66196 136.613 14.3368 130.891 29.0222L130.324 30.4948C128.617 35.0099 123.519 49.3348 122.092 52.9628C116.104 68.183 109.277 78.6146 96.7456 89.7204C79.0009 105.447 63.831 113.71 43.6114 120.634L41.8163 121.236C38.5506 122.306 28.0319 125.719 24.8606 126.857C12.7864 131.191 4.47971 135.951 -3.4965 143.927C-20.7136 161.144 -27.5141 179.541 -23.938 199.158L-23.8265 199.753L-24.8084 199.942C-28.6992 179.755 -21.8172 160.834 -4.20361 143.22C3.70965 135.307 11.946 130.512 23.7149 126.209L24.9064 125.78C28.9612 124.353 41.1362 120.417 42.3686 120.001C62.9335 113.051 78.1778 104.84 96.0823 88.972C108.269 78.1714 114.989 68.0402 120.848 53.3861L121.161 52.5967C122.634 48.8514 128.067 33.5718 129.569 29.6677C135.41 14.4812 142.088 1.4851 152.379 -13.2314L153.461 -14.7653C166.035 -32.4411 183.174 -51.3654 206.313 -72.5002L207.323 -73.4205Z" fill="white"/><path id="Path 14" fill-rule="evenodd" clip-rule="evenodd" d="M148.266 10.1563C159.038 -8.15202 171.575 -22.6751 176.238 -21.1304C179.226 -20.1406 180.051 -16.436 179.196 -10.5218C178.651 -6.74401 177.435 -2.13471 175.641 3.28938L175.181 4.66237C173.909 8.40397 170.864 16.4173 169.306 20.5173C168.859 21.6948 168.534 22.5496 168.409 22.8876L168.156 23.6221C166.017 29.8017 162.291 37.6384 158.125 43.4222C151.79 52.2155 145.038 55.6853 138.223 51.701C131.242 47.6191 135.976 31.2004 147.94 10.7122L148.266 10.1563ZM174.234 4.34052C176.263 -1.62932 177.626 -6.64522 178.207 -10.6647C178.998 -16.1409 178.271 -19.4034 175.923 -20.1811C171.958 -21.4946 159.305 -6.76609 148.804 11.2165L148.457 11.8129C137.079 31.4571 132.597 47.2529 138.728 50.8377C144.971 54.488 151.241 51.2657 157.313 42.8377C161.548 36.9601 165.338 28.8886 167.41 22.7114C167.46 22.5613 167.838 21.5686 168.397 20.0953C169.874 16.2068 172.623 8.971 173.99 5.04761L174.234 4.34052Z" fill="white"/><path id="Path 14_2" fill-rule="evenodd" clip-rule="evenodd" d="M149.391 19.9379C155.055 10.1541 161.626 2.51848 164.299 3.44179L164.458 3.50254C166.071 4.17496 166.523 6.22849 166.118 9.37658C165.835 11.5756 165.14 14.2844 164.094 17.4976C163.443 19.497 161.877 23.7746 161.083 25.9423C160.857 26.5601 160.693 27.0065 160.632 27.1799L160.455 27.7133C159.351 30.9938 157.442 35.0923 155.282 38.1239C151.91 42.8556 148.214 44.7111 144.409 42.4462C140.472 40.1035 142.883 31.2886 149.171 20.3202L149.391 19.9379ZM163.321 16.6357C164.25 13.7185 164.869 11.2488 165.126 9.24903C165.489 6.42749 165.096 4.77535 163.972 4.38696C162.019 3.71227 155.414 11.4398 150.038 20.8175L149.81 21.2172C144.008 31.4502 141.792 39.7252 144.92 41.5869C148.157 43.5132 151.359 41.9056 154.468 37.5436C156.663 34.4633 158.608 30.2053 159.655 26.9448C159.682 26.8625 159.878 26.3252 160.169 25.5303C160.929 23.4535 162.332 19.6186 163.024 17.5488L163.321 16.6357Z" fill="white"/><path id="Path 15" d="M200.832 -80.0883L201.296 -79.2024C177.715 -66.853 160.211 -53.676 146.366 -38.6098C135.646 -26.9435 128.187 -15.8553 117.495 2.95093L112.085 12.5322C101.137 31.848 94.5209 42.0695 84.4192 54.1116C70.8269 70.3149 53.9626 84.9116 31.6085 99.0168L30.4862 99.7217C-37.0273 141.927 -53.8923 180.51 -20.4392 215.71L-19.4101 216.776L-20.1239 217.476C-55.156 181.771 -39.034 142.587 27.9119 100.16L29.9561 98.8737C52.7819 84.6045 69.9027 69.8606 83.6531 53.4689L84.9095 51.9586C94.1336 40.7746 100.566 30.7871 110.758 12.844L116.114 3.35934L117.135 1.56253C127.592 -16.7646 135.019 -27.739 145.63 -39.2864C159.337 -54.2034 176.602 -67.2723 199.726 -79.5063L200.832 -80.0883Z" fill="white"/><path id="Path 16" d="M195.399 -107.078L195.285 -106.084C166.071 -109.436 146.266 -102.067 131.714 -84.5398C125.552 -77.1172 120.294 -67.9043 115.091 -55.9573L114.531 -54.6595C112.756 -50.5162 110.975 -46.0384 108.991 -40.7793L108.016 -38.1743C107.5 -36.7879 106.97 -35.3493 106.381 -33.7397L101.84 -21.2454L101.134 -19.318C90.4974 9.64188 82.6683 26.2677 70.6161 42.241C39.6056 83.3404 -8.98869 118.058 -75.1588 146.403L-77.1693 147.26L-77.5597 146.339C-10.5127 117.902 38.6104 82.999 69.8178 41.6387C81.9271 25.5898 89.7622 8.84456 100.547 -20.6227L105.243 -33.5404C106.047 -35.7412 106.738 -37.6144 107.421 -39.4421L108.411 -42.071C110.465 -47.4864 112.311 -52.0775 114.174 -56.3566C119.412 -68.3828 124.714 -77.6732 130.945 -85.1786C145.571 -102.795 165.457 -110.316 194.516 -107.176L195.399 -107.078Z" fill="white"/><path id="Path 17" d="M169.453 -122.934L169.695 -121.964L168.511 -121.662C152.762 -117.575 138.397 -110.652 119.581 -95.2778C91.9893 -72.7334 62.3696 -36.5827 30.6575 16.5011L29.6959 18.1148C-17.5631 97.6271 -64.2811 140.429 -110.506 146.468L-111.906 146.64L-112.02 145.646C-66.1875 140.393 -19.6955 98.5267 27.4087 19.9949L28.8363 17.6039C60.9674 -36.456 90.9797 -73.1999 118.948 -96.0521L120.36 -97.1966C138.608 -111.871 152.774 -118.611 168.259 -122.63L169.453 -122.934Z" fill="white"/><path id="Path 19" d="M165.604 -136.916L165.387 -135.939C154.738 -138.305 143.05 -133.916 129.321 -123.291L128.149 -122.374C118.316 -114.604 109.997 -106.292 92.3272 -87.247L84.0519 -78.3135C77.6164 -71.3899 72.9573 -66.4979 68.2938 -61.8218L67.894 -61.4215C55.9527 -49.4803 45.2301 -42.8297 30.9996 -37.7634L30.2339 -37.4935C24.1785 -35.3801 0.646395 -28.7713 -3.46889 -27.5391L-3.72147 -27.4628C-19.8966 -22.5151 -34.969 -16.7071 -52.3417 -8.26105C-54.2213 -7.34724 -56.1184 -6.40625 -58.0343 -5.43707C-103.849 17.739 -123.794 59.8592 -117.881 121.032L-117.694 122.892L-118.689 122.996C-125.23 60.426 -105.158 17.2805 -58.4857 -6.32939C-56.5651 -7.30094 -54.6633 -8.24428 -52.7789 -9.1604C-35.7929 -17.4185 -20.9942 -23.1638 -5.22866 -28.0453L-3.75971 -28.4959C0.331341 -29.721 23.3454 -36.1852 29.6898 -38.3634L29.9043 -38.4377C44.1254 -43.401 54.7628 -49.8524 66.5541 -61.4997L67.1869 -62.1286C72.2412 -67.183 77.2339 -72.4338 84.4401 -80.2011L92.7282 -89.1486C110.035 -107.774 118.212 -115.868 128.169 -123.662L129.242 -124.492C142.777 -134.848 154.437 -139.214 165.18 -137.006L165.604 -136.916Z" fill="white"/><path id="Path 20" d="M148.171 -163.651C128.189 -143.669 106.476 -126.995 81.7261 -111.933L79.7127 -110.715C61.8394 -99.9539 44.4707 -91.0646 17.3374 -78.2826L-5.60567 -67.5252C-7.4225 -66.6683 -9.11329 -65.8675 -10.7794 -65.0746L-13.8225 -63.6217C-21.4574 -59.9636 -28.0338 -56.7127 -34.2515 -53.5022L-35.0605 -53.0837C-52.9814 -43.7941 -67.7613 -34.8707 -81.0972 -24.9843C-124.615 7.27679 -142.682 48.8065 -135.336 99.6731L-135.105 101.217L-136.094 101.37C-144.09 49.4263 -125.944 7.01711 -81.6927 -25.7877C-68.3095 -35.7091 -53.4855 -44.6591 -35.5207 -53.9715L-33.0773 -55.2306C-27.33 -58.1753 -21.2338 -61.1796 -14.2554 -64.5231L-9.19029 -66.9365C-6.46553 -68.2282 -3.57394 -69.5895 -0.100282 -71.2177L13.8184 -77.7332C43.7593 -91.7822 61.9745 -101.084 81.2062 -112.788C105.397 -127.509 126.674 -143.771 146.266 -163.167L147.464 -164.358L148.171 -163.651Z" fill="white"/><path id="Path 21" d="M124.133 -169.311L124.834 -168.598C83.3683 -127.801 33.615 -105.209 -24.4059 -100.83L-26.1666 -100.703C-68.7347 -97.7695 -107.635 -73.3056 -132.347 -35.3244C-157.241 2.9348 -164.994 50.5271 -152.022 95.9991L-151.623 97.3764L-152.582 97.6591C-166.192 51.4873 -158.488 3.01723 -133.186 -35.8698C-108.307 -74.1054 -69.1285 -98.7447 -26.2354 -101.701C31.717 -105.695 81.4152 -127.82 122.879 -168.085L124.133 -169.311Z" fill="white"/></g></g></g></g></g></g><g id="Face" transform="translate(589 429) scale(1 1)"><g id="Face/Face"><g id="MOUTH"><g id="Group"><path id="Clip 11" fill-rule="evenodd" clip-rule="evenodd" d="M24.9999 38.5633C10.9824 34.7403 13.9999 54.5633 24.9999 57.5633C35.9999 60.5633 42.9999 60.5633 52.9999 57.5633C66.6922 53.4556 65.482 34.4026 52.9999 38.5633C43.9999 41.5633 35.9999 41.5633 24.9999 38.5633Z" fill="white"/><mask id="mask0_103_434102cdb200b-ad92-48db-93c9-ed9e2a323caa" style="mask-type:alpha" maskUnits="userSpaceOnUse" x="15" y="37" width="48" height="23" fill="#ffffff"><path id="Clip 11_2" fill-rule="evenodd" clip-rule="evenodd" d="M24.9999 38.5633C10.9824 34.7403 13.9999 54.5633 24.9999 57.5633C35.9999 60.5633 42.9999 60.5633 52.9999 57.5633C66.6922 53.4556 65.482 34.4026 52.9999 38.5633C43.9999 41.5633 35.9999 41.5633 24.9999 38.5633Z" fill="#ffffff"/></mask><g mask="url(#mask0_103_434102cdb200b-ad92-48db-93c9-ed9e2a323caa)"><path id="Fill 7" fill-rule="evenodd" clip-rule="evenodd" d="M27.5685 66.605L25.0205 33.197L27.6045 33L30.1535 66.407L27.5685 66.605Z" fill="#BEDBEA"/><path id="Fill 4" fill-rule="evenodd" clip-rule="evenodd" d="M40.9148 69.0913L38.3218 69.0583L38.7258 37.2753L41.3178 37.3073L40.9148 69.0913Z" fill="#BEDBEA"/><path id="Fill 10" fill-rule="evenodd" clip-rule="evenodd" d="M52.4081 74.4683L49.8311 74.1903L54.2211 33.5633L56.8001 33.8413L52.4081 74.4683Z" fill="#BEDBEA"/></g></g></g><g id="EYES"><path id="Fill 1" d="M65.5302 21.9005C68.7192 22.4315 72.2132 20.8015 73.6692 17.9155C76.8882 11.5345 69.4722 6.0005 63.5982 8.7005C57.4312 11.5365 58.9212 20.7995 65.5302 21.9005" fill="#001D2D"/><path id="Fill 4_2" d="M14.9191 21.9005C11.7301 22.4315 8.23606 20.8015 6.78006 17.9155C3.56006 11.5345 10.9761 6.0005 16.8501 8.7005C23.0181 11.5365 21.5291 20.7995 14.9191 21.9005" fill="#001D2D"/></g></g></g><g id="Head Accesory" transform="matrix(-1 0 0 1 708 166) scale(1 1)"><g id="Head Accesory/Long Beanie"><path id="Fill 1" fill-rule="evenodd" clip-rule="evenodd" d="M137.388 180.198H62.6119C61.0495 180.198 59.8356 181.603 60.0182 183.201L61.6796 197.82C61.8339 199.176 62.9488 200.198 64.2733 200.198H135.727C137.051 200.198 138.166 199.176 138.321 197.82L139.982 183.201C140.163 181.603 138.951 180.198 137.388 180.198" fill="#3A306F"/><path id="Fill 4" fill-rule="evenodd" clip-rule="evenodd" d="M65.6832 180.116C65.6832 180.116 48.8937 153.116 80.8937 139.116C80.8937 139.116 67.8937 94.1157 113.736 97.8512C113.736 97.8512 138.879 73.2606 152.894 98.1157C166.908 122.971 135.894 130.116 135.894 130.116C135.894 130.116 144.894 151.116 125.575 155.21C125.575 155.21 146.121 163.203 133.584 180.116H65.6832Z" fill="#6670AA"/></g></g></g></g><g id="Arms"><path id="Combined Shape" fill-rule="evenodd" clip-rule="evenodd" d="M1162.02 601.643C1162.21 599.442 1164.16 597.819 1166.36 598.016C1168.56 598.213 1170.18 600.157 1169.98 602.357C1149.61 829.46 985.818 927.06 680.731 894.894C660.608 892.772 643.862 904.468 630.172 930.843C629.154 932.804 626.74 933.568 624.779 932.55C622.818 931.532 622.054 929.118 623.071 927.157C638.144 898.12 657.751 884.426 681.57 886.938C982.654 918.682 1142.1 823.673 1162.02 601.643ZM984.916 670.674C983.539 668.946 981.023 668.661 979.295 670.038C960.146 685.293 933.861 695.434 901.999 701.248C872.172 706.69 843.227 707.87 808.453 706.882L805.124 706.781L794.029 706.421C792.687 706.387 791.649 706.371 790.769 706.371L789.954 706.377C763.091 706.771 738.977 726.698 717.501 765.472C716.43 767.404 717.129 769.839 719.061 770.909C720.994 771.979 723.428 771.281 724.499 769.348C744.93 732.462 767.058 714.371 790.769 714.371C791.783 714.371 793.071 714.395 794.888 714.448L806.561 714.83C842.589 715.919 872.46 714.769 903.435 709.118C936.485 703.088 963.95 692.491 984.28 676.295C986.007 674.919 986.292 672.402 984.916 670.674ZM751.883 740.842C753.52 739.36 756.05 739.485 757.533 741.123C759.016 742.76 758.89 745.29 757.253 746.772C747.919 755.225 739.396 766.049 731.696 779.259C730.583 781.167 728.134 781.813 726.225 780.7C724.317 779.588 723.672 777.138 724.784 775.23C732.88 761.341 741.91 749.874 751.883 740.842ZM768.779 750.365C767.331 748.696 764.805 748.517 763.136 749.965C749.15 762.098 739.158 774.314 733.195 786.649C732.234 788.638 733.067 791.03 735.056 791.991C737.045 792.953 739.436 792.12 740.398 790.131C745.844 778.864 755.159 767.476 768.378 756.008C770.047 754.56 770.226 752.034 768.779 750.365ZM806.325 754.909C782.469 752.402 762.829 766.073 747.729 795.065C746.709 797.025 747.47 799.44 749.429 800.461C751.388 801.481 753.804 800.72 754.824 798.761C768.54 772.426 785.321 760.746 805.489 762.865L805.694 762.887C808.177 763.171 811.635 763.964 817.687 765.583L828.237 768.429C830.77 769.102 833.08 769.701 835.368 770.274L836.892 770.652C855.189 775.16 871.918 777.882 889.679 778.586C906.377 779.247 922.908 778.001 939.343 774.55C917.367 787.565 892.12 798.381 864.074 807.154C826.14 819.02 784.878 826.625 742.433 830.793C715.447 833.444 693.564 834.324 672.89 834.382L670.639 834.386C643.608 834.386 619.259 852.522 597.582 888.181C596.434 890.069 597.034 892.529 598.922 893.677C600.809 894.825 603.27 894.225 604.418 892.337C624.786 858.831 646.865 842.386 670.639 842.386C692.219 842.386 714.952 841.531 743.215 838.755L745.362 838.541C787.559 834.279 828.594 826.635 866.463 814.789C914.81 799.665 955.178 778.521 985.267 750.45C1020.55 717.538 1040.67 675.994 1043.2 625.181C1043.31 622.974 1041.61 621.097 1039.4 620.987L1039.2 620.982C1037.08 620.981 1035.31 622.644 1035.21 624.783C1032.79 673.471 1013.6 713.077 979.81 744.6C973.021 750.934 965.676 756.911 957.804 762.541C956.905 762.079 955.831 761.955 954.79 762.279C933.395 768.926 911.864 771.459 889.996 770.592C872.838 769.912 856.619 767.274 838.805 762.884C836.31 762.27 833.836 761.635 831.112 760.915L828.587 760.242L819.223 757.713C813.27 756.128 809.712 755.315 806.828 754.966L806.325 754.909ZM646.063 881.723C644.613 880.057 642.086 879.882 640.42 881.332C626.46 893.484 616.486 905.718 610.535 918.071C609.577 920.061 610.413 922.452 612.403 923.411C614.393 924.37 616.784 923.533 617.743 921.543C623.179 910.258 632.477 898.853 645.672 887.366C647.339 885.916 647.514 883.389 646.063 881.723ZM630.502 868.913C632.137 867.427 634.666 867.549 636.152 869.184C637.638 870.819 637.516 873.348 635.881 874.834C626.565 883.299 618.058 894.14 610.371 907.371C609.261 909.281 606.813 909.93 604.903 908.82C602.993 907.71 602.344 905.262 603.454 903.352C611.535 889.442 620.547 877.958 630.502 868.913Z" fill="#001D2D"/></g></g></svg>