<svg viewBox="163.5 94.9532710280373 2673.0000000000005 1372.710280373832" fill="none" xmlns="http://www.w3.org/2000/svg" xmlns:xlink="http://www.w3.org/1999/xlink" overflow="visible" width="2475.0000000000005px" height="1271.0280373831777px"><rect id="Blush Background Color" fill="#035aa6" x="163.5" y="94.9532710280373" width="2673.0000000000005" height="1372.710280373832"/><g id="Master/Solo/Presenting"><g id="Background1"><g id="PostitWall"><g id="Group"><path id="Shape" fill-rule="evenodd" clip-rule="evenodd" d="M364.993 526.145C367.662 525.818 370.097 527.657 370.534 530.284L370.565 530.498L381.076 616.068C381.404 618.737 379.564 621.173 376.937 621.61L376.722 621.641L291.12 632.147C288.452 632.475 286.017 630.636 285.579 628.009L285.548 627.794L275.038 542.224C274.71 539.555 276.549 537.12 279.177 536.683L279.391 536.652L364.993 526.145ZM754 535C756.689 535 758.882 537.122 758.996 539.783L759 540L759.001 598.214C759.013 598.408 759.013 598.604 759.001 598.8L759 599.627C759 600.746 758.625 601.831 757.938 602.709L757.774 602.908L734.821 629.302V629.302C733.724 630.557 732.259 631.076 730.843 631.001L668 631C665.312 631 663.119 628.878 663.005 626.217L663 626V540C663 537.311 665.123 535.118 667.784 535.005L668 535H754ZM539.161 532.011C539.395 529.333 541.701 527.333 544.361 527.452L544.578 527.466L630.494 534.98C633.173 535.214 635.173 537.52 635.054 540.18L635.04 540.397L627.523 626.281C627.289 628.96 624.983 630.959 622.323 630.841L622.106 630.826L536.19 623.312C533.511 623.078 531.511 620.773 531.63 618.112L531.644 617.896L539.161 532.011ZM918.484 532.011C918.719 529.333 921.024 527.333 923.685 527.452L923.901 527.466L1009.82 534.98C1012.5 535.214 1014.5 537.52 1014.38 540.18L1014.36 540.397L1006.85 626.281C1006.61 628.96 1004.31 630.959 1001.65 630.841L1001.43 630.826L915.513 623.312C912.834 623.078 910.835 620.773 910.953 618.112L910.968 617.896L918.484 532.011ZM499 531C501.689 531 503.882 533.122 503.996 535.783L504 536V622C504 624.689 501.878 626.882 499.217 626.995L499 627H413C410.312 627 408.119 624.878 408.005 622.217L408 622V536C408 533.311 410.123 531.118 412.784 531.005L413 531H499ZM878 531C880.689 531 882.882 533.122 882.996 535.783L883 536V622C883 624.689 880.878 626.882 878.217 626.995L878 627H792C789.312 627 787.119 624.878 787.005 622.217L787 622V536C787 533.311 789.123 531.118 791.784 531.005L792 531H878ZM361.248 536.679L285.572 545.967L294.864 621.612L370.54 612.324L361.248 536.679ZM749 545H673V621L725.854 621L724.925 598.688C724.809 595.919 726.965 593.599 729.708 593.484L729.92 593.48L749 593.48L749 545ZM548.687 537.863L542.041 613.786L617.996 620.428L624.642 544.506L548.687 537.863ZM928.01 537.863L921.365 613.786L997.319 620.428L1003.96 544.506L928.01 537.863ZM494 541H418V617H494V541ZM873 541H797V617H873V541ZM743.324 603.48H735.132L735.522 612.842L743.324 603.48ZM345.021 551.427C347.479 552.512 348.627 555.337 347.659 557.815L347.574 558.021L328.574 601.021C327.224 604.076 323.333 604.958 320.8 602.842L320.637 602.7L309.637 592.7C307.594 590.842 307.443 587.68 309.301 585.637C311.104 583.653 314.136 583.453 316.181 585.142L316.364 585.3L322.23 590.633L338.427 553.979C339.543 551.453 342.495 550.31 345.021 551.427ZM989.364 561.3C991.347 563.103 991.547 566.135 989.859 568.18L989.7 568.363L959.7 601.363C957.425 603.866 953.396 603.425 951.698 600.548L951.589 600.353L943.589 585.353C942.289 582.916 943.211 579.888 945.648 578.588C948.016 577.325 950.945 578.161 952.3 580.448L952.412 580.647L957.072 589.387L982.301 561.637C984.158 559.593 987.321 559.443 989.364 561.3ZM767 420C769.689 420 771.882 422.122 771.996 424.783L772 425L772.001 483.214C772.013 483.408 772.013 483.604 772.001 483.8L772 484.627C772 485.746 771.625 486.831 770.938 487.709L770.774 487.908L747.821 514.302V514.302C746.724 515.557 745.259 516.076 743.843 516.001L681 516C678.312 516 676.119 513.878 676.005 511.217L676 511V425C676 422.311 678.123 420.118 680.784 420.005L681 420H767ZM628.617 401.999C631.286 401.671 633.721 403.51 634.158 406.137L634.189 406.352L644.7 491.922C645.027 494.591 643.188 497.026 640.561 497.463L640.346 497.494L554.744 508.001C552.075 508.329 549.64 506.49 549.203 503.863L549.172 503.648L538.661 418.078C538.334 415.409 540.173 412.974 542.8 412.537L543.015 412.506L628.617 401.999ZM1127.06 401.999C1129.73 401.671 1132.17 403.51 1132.61 406.137L1132.64 406.352L1143.15 491.922C1143.48 494.591 1141.64 497.026 1139.01 497.463L1138.79 497.494L1053.19 508.001C1050.52 508.329 1048.09 506.49 1047.65 503.863L1047.62 503.648L1037.11 418.078C1036.78 415.409 1038.62 412.974 1041.25 412.537L1041.46 412.506L1127.06 401.999ZM411.329 407.865C411.563 405.186 413.868 403.187 416.529 403.305L416.745 403.32L502.662 410.834C505.341 411.068 507.341 413.373 507.222 416.034L507.207 416.251L499.691 502.135C499.456 504.814 497.151 506.813 494.491 506.694L494.274 506.68L408.357 499.166C405.679 498.932 403.679 496.627 403.798 493.966L403.812 493.749L411.329 407.865ZM790.662 407.865C790.897 405.186 793.202 403.187 795.862 403.305L796.079 403.32L881.996 410.834C884.674 411.068 886.674 413.373 886.555 416.034L886.541 416.251L879.024 502.135C878.79 504.814 876.485 506.813 873.824 506.694L873.608 506.68L787.691 499.166C785.012 498.932 783.012 496.627 783.131 493.966L783.145 493.749L790.662 407.865ZM762 430H686V506L738.854 506L737.925 483.688C737.809 480.919 739.965 478.599 742.708 478.484L742.92 478.48L762 478.48L762 430ZM367 407C369.689 407 371.882 409.122 371.996 411.783L372 412V498C372 500.689 369.878 502.882 367.217 502.995L367 503H281C278.312 503 276.119 500.878 276.005 498.217L276 498V412C276 409.311 278.123 407.118 280.784 407.005L281 407H367ZM1005 407C1007.69 407 1009.88 409.122 1010 411.783L1010 412V498C1010 500.689 1007.88 502.882 1005.22 502.995L1005 503H919C916.312 503 914.119 500.878 914.005 498.217L914 498V412C914 409.311 916.123 407.118 918.784 407.005L919 407H1005ZM756.324 488.48H748.132L748.522 497.842L756.324 488.48ZM1123.32 412.533L1047.64 421.821L1056.94 497.466L1132.61 488.178L1123.32 412.533ZM624.873 412.533L549.195 421.821L558.487 497.466L634.165 488.178L624.873 412.533ZM800.188 413.716L793.542 489.639L869.497 496.282L876.143 420.36L800.188 413.716ZM420.855 413.716L414.209 489.639L490.164 496.282L496.81 420.36L420.855 413.716ZM1000 417H924V493H1000V417ZM362 417H286V493H362V417ZM614.235 436.187C616.279 437.921 616.583 440.945 614.965 443.046L614.813 443.235L601.707 458.68L614.214 469.169C616.329 470.944 616.606 474.097 614.831 476.213C613.109 478.267 610.088 478.588 607.977 476.982L607.787 476.831L595.238 466.305L586.813 476.235C585.026 478.34 581.871 478.599 579.766 476.813C577.722 475.078 577.418 472.055 579.036 469.954L579.188 469.765L587.576 459.878L576.787 450.831C574.672 449.056 574.395 445.903 576.17 443.787C577.892 441.733 580.913 441.412 583.024 443.018L583.214 443.169L594.045 452.254L607.188 436.765C608.975 434.659 612.13 434.401 614.235 436.187ZM616.495 277.853C619.163 277.525 621.598 279.364 622.035 281.991L622.067 282.206L632.577 367.776C632.905 370.445 631.066 372.88 628.438 373.317L628.224 373.348L542.621 383.855C539.953 384.182 537.518 382.343 537.081 379.716L537.05 379.502L526.539 293.932C526.211 291.263 528.051 288.827 530.678 288.39L530.893 288.359L616.495 277.853ZM871.78 277.853C874.448 277.525 876.884 279.364 877.321 281.991L877.352 282.206L887.862 367.776C888.19 370.445 886.351 372.88 883.723 373.317L883.509 373.348L797.907 383.855C795.238 384.182 792.803 382.343 792.366 379.716L792.335 379.502L781.824 293.932C781.496 291.263 783.336 288.827 785.963 288.39L786.178 288.359L871.78 277.853ZM918.305 283.719C918.539 281.04 920.844 279.041 923.505 279.159L923.721 279.174L1009.64 286.687C1012.32 286.922 1014.32 289.227 1014.2 291.888L1014.18 292.104L1006.67 377.989C1006.43 380.667 1004.13 382.667 1001.47 382.548L1001.25 382.534L915.333 375.02C912.655 374.786 910.655 372.48 910.774 369.82L910.788 369.603L918.305 283.719ZM407.734 283.719C407.969 281.04 410.274 279.041 412.935 279.159L413.151 279.174L499.068 286.687C501.747 286.922 503.746 289.227 503.628 291.888L503.613 292.104L496.096 377.989C495.862 380.667 493.557 382.667 490.896 382.548L490.68 382.534L404.763 375.02C402.084 374.786 400.085 372.48 400.203 369.82L400.218 369.603L407.734 283.719ZM1133 283C1135.69 283 1137.88 285.122 1138 287.783L1138 288L1138 346.214C1138.01 346.408 1138.01 346.604 1138 346.8L1138 347.627C1138 348.746 1137.62 349.831 1136.94 350.709L1136.77 350.908L1113.82 377.302V377.302C1112.72 378.557 1111.26 379.076 1109.84 379.001L1047 379C1044.31 379 1042.12 376.878 1042.01 374.217L1042 374V288C1042 285.311 1044.12 283.118 1046.78 283.005L1047 283H1133ZM367 283C369.689 283 371.882 285.122 371.996 287.783L372 288L372.001 346.214C372.013 346.408 372.013 346.604 372.001 346.8L372 347.627C372 348.746 371.625 349.831 370.938 350.709L370.774 350.908L347.821 377.302V377.302C346.724 378.557 345.259 379.076 343.843 379.001L281 379C278.312 379 276.119 376.878 276.005 374.217L276 374V288C276 285.311 278.123 283.118 280.784 283.005L281 283H367ZM750 283C752.689 283 754.882 285.122 754.996 287.783L755 288V374C755 376.689 752.878 378.882 750.217 378.995L750 379H664C661.312 379 659.119 376.878 659.005 374.217L659 374V288C659 285.311 661.123 283.118 663.784 283.005L664 283H750ZM612.75 288.387L537.073 297.675L546.365 373.32L622.042 364.032L612.75 288.387ZM868.035 288.387L792.358 297.675L801.65 373.32L877.327 364.032L868.035 288.387ZM417.261 289.571L410.615 365.493L486.569 372.135L493.215 296.213L417.261 289.571ZM927.831 289.57L921.185 365.493L997.14 372.135L1003.79 296.213L927.831 289.57ZM1128 293H1052V369L1104.85 369L1103.92 346.688C1103.81 343.919 1105.97 341.599 1108.71 341.484L1108.92 341.48L1128 341.48L1128 293ZM362 293H286V369L338.854 369L337.925 346.688C337.809 343.919 339.965 341.599 342.708 341.484L342.92 341.48L362 341.48L362 293ZM745 293H669V369H745V293ZM1122.32 351.48H1114.13L1114.52 360.842L1122.32 351.48ZM356.324 351.48H348.132L348.522 360.842L356.324 351.48ZM852.841 306.885C855.049 308.41 855.65 311.392 854.244 313.644L854.115 313.841L840.781 333.15L852.933 341.95C855.17 343.57 855.67 346.696 854.05 348.933C852.477 351.105 849.482 351.639 847.262 350.183L847.068 350.05L835.097 341.381L825.115 355.841C823.546 358.113 820.432 358.683 818.16 357.114C815.952 355.59 815.351 352.608 816.757 350.356L816.886 350.159L826.997 335.516L818.068 329.05C815.831 327.43 815.331 324.304 816.951 322.067C818.524 319.895 821.519 319.361 823.739 320.817L823.933 320.95L832.68 327.284L845.886 308.159C847.455 305.887 850.569 305.316 852.841 306.885ZM432.282 341.008L432.498 341.025L472.498 345.025C475.246 345.3 477.25 347.75 476.976 350.497C476.708 353.173 474.378 355.144 471.719 354.992L471.503 354.975L431.503 350.975C428.755 350.7 426.751 348.25 427.025 345.502C427.293 342.827 429.623 340.856 432.282 341.008ZM724 335C726.762 335 729 337.239 729 340C729 342.689 726.878 344.882 724.217 344.995L724 345H687C684.239 345 682 342.761 682 340C682 337.311 684.123 335.118 686.784 335.005L687 335H724ZM476 316C478.762 316 481 318.239 481 321C481 323.689 478.878 325.882 476.217 325.995L476 326H436C433.239 326 431 323.761 431 321C431 318.311 433.123 316.118 435.784 316.005L436 316H476ZM730 310C732.762 310 735 312.239 735 315C735 317.689 732.878 319.882 730.217 319.995L730 320H687C684.239 320 682 317.761 682 315C682 312.311 684.123 310.118 686.784 310.005L687 310H730Z" fill="#0089C5" fill-opacity="0.25"/></g></g><path id="Shape_2" fill-rule="evenodd" clip-rule="evenodd" d="M564 1031L975.783 1031C978.545 1031 980.783 1033.24 980.783 1036C980.783 1038.69 978.661 1040.89 976 1041L975.783 1041L564 1041C561.239 1041 559 1038.76 559 1036C559 1033.31 561.122 1031.12 563.783 1031L564 1031ZM498 1031C500.761 1031 503 1033.24 503 1036C503 1038.69 500.878 1040.88 498.217 1041L498 1041H294C291.239 1041 289 1038.76 289 1036C289 1033.31 291.122 1031.12 293.783 1031L294 1031H498Z" fill="#0089C5" fill-opacity="0.25"/></g><g id="Background2"><g id="Background"><g id="WaterDispenser"><path id="Shape_3" fill-rule="evenodd" clip-rule="evenodd" d="M2508.5 398C2533.1 398 2553.1 417.746 2553.49 442.256L2553.5 443L2553.5 470.821C2553.78 471.397 2553.95 472.035 2553.99 472.709L2554 473V531C2554 531.781 2553.82 532.521 2553.5 533.179L2553.5 561C2553.5 576.982 2545.17 591.017 2532.61 599.001L2585 599C2590.52 599 2595 603.477 2595 609V1031.24L2721 1031C2723.76 1031 2726 1033.13 2726 1035.76C2726 1038.32 2723.88 1040.41 2721.22 1040.52L2721 1040.52L2595 1040.77V1041H2401.8L2393.81 1107.54C2397.64 1105.49 2401.94 1105.14 2406.16 1106.7L2406.56 1106.85L2406.86 1106.97L2407.19 1107.12C2413.4 1109.89 2417.34 1116.28 2417.26 1123.4L2417.25 1123.78L2417.23 1124.17L2417.43 1124.28L2417.81 1124.52C2425.48 1129.33 2430.28 1137.59 2429.99 1145.8C2429.61 1156.57 2420.93 1163.85 2407.17 1164L2406.74 1164H2363.74L2363.34 1164C2350.42 1163.82 2344.45 1155.05 2348.1 1144.76L2348.21 1144.45L2348.38 1144L2249 1144L2248.77 1143.99C2246.42 1143.89 2244.45 1142.14 2244.07 1139.82L2244.04 1139.6L2232.21 1041L2015 1041C2012.24 1041 2010 1038.76 2010 1036C2010 1033.31 2012.12 1031.12 2014.78 1031L2015 1031L2231.01 1031L2220.04 939.596L2220.02 939.389C2219.79 936.568 2221.97 934.119 2224.79 934.004L2225 934H2409L2409.21 934.004C2412.04 934.119 2414.21 936.568 2413.99 939.389L2413.97 939.596L2403 1031H2585V609H2352V931.708L2342 931.708V599L2404.39 599.001C2391.97 591.107 2383.69 577.296 2383.5 561.538L2383.5 561V443C2383.5 418.396 2403.25 398.403 2427.76 398.006L2428.5 398H2508.5ZM2402.86 1116.14C2399.58 1114.84 2395.99 1116.67 2393.35 1122.94C2391.83 1126.55 2386.98 1127.07 2384.71 1123.95L2384.58 1123.77C2383.95 1122.83 2383.28 1122.06 2382.57 1121.46C2380.63 1119.81 2378.42 1119.39 2376.38 1120.06L2376.12 1120.15L2375.82 1120.27C2375.32 1120.49 2374.83 1120.78 2374.35 1121.14L2374.1 1121.33V1121.33L2373.98 1121.43V1121.43C2372.82 1122.41 2372.05 1123.61 2371.71 1124.94L2371.64 1125.27C2371.32 1126.95 2371.68 1128.83 2372.85 1130.74L2373.05 1131.04L2373.26 1131.35V1131.35L2373.49 1131.67L2373.67 1131.91L2373.8 1132.08C2376.16 1135.34 2373.86 1139.8 2370.05 1140L2369.85 1140L2369.65 1140L2369.45 1139.99V1139.99L2369.24 1139.98L2368.76 1139.92L2368.64 1139.9V1139.9L2368.52 1139.9L2368.2 1139.88C2366.18 1139.83 2364.08 1140.61 2362.24 1141.92C2362.01 1142.09 2361.78 1142.27 2361.56 1142.45L2361.23 1142.74C2361.16 1142.8 2361.08 1142.87 2361 1142.93C2359.61 1144.2 2358.46 1145.8 2357.73 1147.55L2357.58 1147.93L2357.44 1148.34L2357.37 1148.54C2356.25 1152.12 2357.7 1153.93 2363.43 1154L2363.74 1154H2406.74L2407.16 1154C2415.8 1153.89 2419.82 1150.5 2419.99 1145.45C2420.18 1140.14 2416.12 1134.21 2409.84 1131.62C2407.65 1130.72 2406.41 1128.42 2406.82 1126.13L2406.86 1125.91L2406.99 1125.41C2408.01 1121.22 2406.07 1117.42 2402.86 1116.14ZM2403.36 944H2230.64L2253.44 1134L2356.11 1134C2356.97 1133.36 2357.88 1132.78 2358.82 1132.27C2359.65 1131.82 2360.49 1131.43 2361.35 1131.11L2361.87 1130.92L2362.11 1130.84L2362.03 1130.52L2361.92 1130.03C2361.46 1127.89 2361.41 1125.76 2361.76 1123.71L2361.86 1123.2V1123.2L2361.95 1122.77V1122.77L2362.05 1122.37V1122.37C2362.9 1119.07 2364.79 1116.07 2367.59 1113.74L2367.83 1113.54L2368.22 1113.23C2369.12 1112.54 2370.07 1111.95 2371.05 1111.47L2371.62 1111.2V1111.2L2371.8 1111.12V1111.12C2375.39 1109.54 2379.3 1109.31 2382.98 1110.46L2383.37 1110.59L2403.36 944ZM2483 639C2485.79 639 2488.03 641.281 2488 644.045L2487.99 644.258L2486.76 668H2526C2528.69 668 2530.88 670.122 2531 672.783L2531 673V775H2542C2544.69 775 2546.88 777.122 2547 779.783L2547 780V807C2547 809.689 2544.88 811.882 2542.22 811.995L2542 812H2395C2392.31 812 2390.12 809.878 2390 807.217L2390 807V780C2390 777.311 2392.12 775.118 2394.78 775.005L2395 775H2406V673C2406 670.311 2408.12 668.118 2410.78 668.005L2411 668H2451.23L2450.01 644.258C2449.86 641.471 2452.02 639.12 2454.79 639.004L2455 639H2483ZM2537 785H2400V802H2537V785ZM2451.75 678H2416V775H2447.21L2439.05 719.73C2438.62 716.779 2440.84 714.123 2443.79 714.004L2444 714H2499C2501.98 714 2504.29 716.589 2503.97 719.524L2503.95 719.73L2495.79 775H2521V678H2486.25L2484.99 702.258C2484.86 704.842 2482.78 706.884 2480.22 706.995L2480 707H2458C2455.41 707 2453.27 705.03 2453.02 702.478L2453.01 702.258L2451.75 678ZM2493.21 724H2449.79L2457.32 775H2485.68L2493.21 724ZM2476.23 678H2461.77L2462.75 697H2475.25L2476.23 678ZM2477.73 649H2460.27L2461.25 668H2476.75L2477.73 649ZM2543.5 536H2393.5V561C2393.5 580.137 2408.86 595.686 2427.92 595.995L2428.5 596H2508.5C2527.64 596 2543.19 580.642 2543.5 561.579L2543.5 561V536ZM2543.5 507H2394V526H2543.5V507ZM2543.5 478H2394V497H2543.5V478ZM2508.5 408H2428.5C2409.36 408 2393.81 423.358 2393.5 442.421L2393.5 443V468H2543.5V443C2543.5 423.863 2528.14 408.314 2509.08 408.005L2508.5 408Z" fill="#0089C5" fill-opacity="0.25"/></g></g></g><g id="Plants" transform="translate(547 825) scale(1 1)"><g id="Plants/Fern"><g id="Group"><path id="Star Copy 2" d="M188 158.388V158.388C182.715 169.416 166.323 166.819 164.704 154.698V154.698V154.698C156.269 163.553 141.482 156.018 143.688 143.99V143.99V143.99C132.93 149.805 121.195 138.07 127.01 127.312V127.312V127.312C114.982 129.518 107.447 114.731 116.302 106.296V106.296V106.296C104.181 104.677 101.584 88.2855 112.612 83V83V83C101.584 77.7145 104.181 61.3229 116.302 59.7039V59.7039V59.7039C107.447 51.2693 114.982 36.4822 127.01 38.6882V38.6882V38.6882C121.195 27.9302 132.93 16.1951 143.688 22.0101V22.0101V22.0101C141.482 9.98163 156.269 2.44722 164.704 11.302V11.302V11.302C166.323 -0.81938 182.715 -3.41556 188 7.6123V7.6123V7.6123C193.285 -3.41556 209.677 -0.81938 211.296 11.302V11.302V11.302C219.731 2.44722 234.518 9.98162 232.312 22.0101V22.0101V22.0101C243.07 16.1951 254.805 27.9302 248.99 38.6882V38.6882V38.6882C261.018 36.4822 268.553 51.2693 259.698 59.7039V59.7039V59.7039C271.819 61.3229 274.416 77.7145 263.388 83V83V83C274.416 88.2855 271.819 104.677 259.698 106.296V106.296V106.296C268.553 114.731 261.018 129.518 248.99 127.312V127.312V127.312C254.805 138.07 243.07 149.805 232.312 143.99V143.99V143.99C234.518 156.018 219.731 163.553 211.296 154.698V154.698V154.698C209.677 166.819 193.285 169.416 188 158.388V158.388Z" fill="#42AB99"/><path id="Star Copy" d="M94 196.162V196.162C89.6418 205.255 76.1259 203.114 74.791 193.119V193.119V193.119C67.8361 200.421 55.6433 194.208 57.4622 184.29V184.29V184.29C48.5916 189.085 38.9152 179.408 43.7101 170.538V170.538V170.538C33.7919 172.357 27.5793 160.164 34.8806 153.209V153.209V153.209C24.8858 151.874 22.7451 138.358 31.8382 134V134V134C22.7451 129.642 24.8858 116.126 34.8806 114.791V114.791V114.791C27.5793 107.836 33.7919 95.6433 43.7101 97.4622V97.4622V97.4622C38.9152 88.5915 48.5915 78.9152 57.4622 83.7101V83.7101V83.7101C55.6433 73.7919 67.8361 67.5793 74.791 74.8806V74.8806V74.8806C76.1259 64.8858 89.6418 62.7451 94 71.8382V71.8382V71.8382C98.3582 62.7451 111.874 64.8858 113.209 74.8806V74.8806V74.8806C120.164 67.5793 132.357 73.7919 130.538 83.7101V83.7101V83.7101C139.408 78.9152 149.085 88.5916 144.29 97.4622V97.4622V97.4622C154.208 95.6433 160.421 107.836 153.119 114.791V114.791V114.791C163.114 116.126 165.255 129.642 156.162 134V134V134C165.255 138.358 163.114 151.874 153.119 153.209V153.209V153.209C160.421 160.164 154.208 172.357 144.29 170.538V170.538V170.538C149.085 179.408 139.408 189.085 130.538 184.29V184.29V184.29C132.357 194.208 120.164 200.421 113.209 193.119V193.119V193.119C111.874 203.114 98.3582 205.255 94 196.162V196.162Z" fill="#59BCAB"/><path id="Star" d="M150 272.388V272.388C144.715 283.416 128.323 280.819 126.704 268.698V268.698V268.698C118.269 277.553 103.482 270.018 105.688 257.99V257.99V257.99C94.9302 263.805 83.1951 252.07 89.0101 241.312V241.312V241.312C76.9816 243.518 69.4472 228.731 78.302 220.296V220.296V220.296C66.1806 218.677 63.5844 202.285 74.6123 197V197V197C63.5844 191.715 66.1806 175.323 78.302 173.704V173.704V173.704C69.4472 165.269 76.9816 150.482 89.0101 152.688V152.688V152.688C83.1951 141.93 94.9302 130.195 105.688 136.01V136.01V136.01C103.482 123.982 118.269 116.447 126.704 125.302V125.302V125.302C128.323 113.181 144.715 110.584 150 121.612V121.612V121.612C155.285 110.584 171.677 113.181 173.296 125.302V125.302V125.302C181.731 116.447 196.518 123.982 194.312 136.01V136.01V136.01C205.07 130.195 216.805 141.93 210.99 152.688V152.688V152.688C223.018 150.482 230.553 165.269 221.698 173.704V173.704V173.704C233.819 175.323 236.416 191.715 225.388 197V197V197C236.416 202.285 233.819 218.677 221.698 220.296V220.296V220.296C230.553 228.731 223.018 243.518 210.99 241.312V241.312V241.312C216.805 252.07 205.07 263.805 194.312 257.99V257.99V257.99C196.518 270.018 181.731 277.553 173.296 268.698V268.698V268.698C171.677 280.819 155.285 283.416 150 272.388V272.388Z" fill="#82D1C4"/><path id="Rectangle" fill-rule="evenodd" clip-rule="evenodd" d="M80 240H220V254.894C220 269.307 214.037 283.077 203.526 292.939V292.939C198.691 297.475 192.31 300 185.68 300H114.32C107.69 300 101.309 297.475 96.4735 292.939V292.939C85.9627 283.077 80 269.307 80 254.894V240Z" fill="#E4EDF1"/><path id="Combined Shape" fill-rule="evenodd" clip-rule="evenodd" d="M199 253C199 250.791 197.209 249 195 249H176L175.8 249.005C173.684 249.109 172 250.858 172 253C172 255.209 173.791 257 176 257H195L195.2 256.995C197.316 256.891 199 255.142 199 253ZM203 267C203 264.791 201.209 263 199 263H190L189.8 263.005C187.684 263.109 186 264.858 186 267C186 269.209 187.791 271 190 271H199L199.2 270.995C201.316 270.891 203 269.142 203 267ZM176 269C178.209 269 180 270.791 180 273C180 275.142 178.316 276.891 176.2 276.995L176 277H163C160.791 277 159 275.209 159 273C159 270.858 160.684 269.109 162.8 269.005L163 269H176ZM187 287C187 284.791 185.209 283 183 283H170L169.8 283.005C167.684 283.109 166 284.858 166 287C166 289.209 167.791 291 170 291H183L183.2 290.995C185.316 290.891 187 289.142 187 287Z" fill="#B9CCD4"/></g></g></g><g id="Plants" transform="translate(298 1046) scale(1 1)"><g id="Plants/Cactus"><path id="Path 160" d="M164.333 0C178.908 0 190.751 11.651 190.996 26.1164L191 26.5741V260.426L85.6705 260.884L85.6667 260.426V211.264H77.6667C63.0925 211.264 51.249 199.613 51.0039 185.148L51 184.69V135.528C51 120.851 62.9391 108.954 77.6667 108.954C92.2408 108.954 104.084 120.605 104.329 135.07L104.333 135.528V158.116H112.333C123.993 158.116 133.904 165.572 137.528 175.961L137.667 176.372V26.5741C137.667 12.0505 149.358 0.248169 163.874 0.00386262L164.333 0Z" fill="#42AB99"/><path id="Path 161" d="M226.946 79.0897C238.972 79.0897 248.75 88.7231 248.995 100.7L249 101.162V177.678C249 189.714 239.374 199.499 227.407 199.745L226.946 199.75H206.361L206.272 267.928C206.272 279.964 196.646 289.749 184.679 289.995L184.218 290H118.054C106.028 290 96.2503 280.367 96.0047 268.39L96 267.928V86.072C96 73.882 105.874 64 118.054 64C130.081 64 139.858 73.6334 140.104 85.6102L140.109 86.072V245.856H162.163L162.253 177.678C162.253 165.642 171.878 155.857 183.846 155.611L184.307 155.606H204.891V101.162C204.891 89.126 214.517 79.3403 226.484 79.0945L226.946 79.0897Z" fill="#59BCAB"/><path id="Rectangle" fill-rule="evenodd" clip-rule="evenodd" d="M76.3867 240H216.387V254.894C216.387 269.307 210.424 283.077 199.913 292.939V292.939C195.078 297.475 188.696 300 182.066 300H110.707C104.077 300 97.6955 297.475 92.8602 292.939V292.939C82.3494 283.077 76.3867 269.307 76.3867 254.894V240Z" fill="#E4EDF1"/><path id="Combined Shape" fill-rule="evenodd" clip-rule="evenodd" d="M198.387 254C198.387 251.791 196.596 250 194.387 250H175.387L175.187 250.005C173.071 250.109 171.387 251.858 171.387 254C171.387 256.209 173.178 258 175.387 258H194.387L194.586 257.995C196.703 257.891 198.387 256.142 198.387 254ZM202.387 268C202.387 265.791 200.596 264 198.387 264H189.387L189.187 264.005C187.071 264.109 185.387 265.858 185.387 268C185.387 270.209 187.178 272 189.387 272H198.387L198.586 271.995C200.703 271.891 202.387 270.142 202.387 268ZM175.387 270C177.596 270 179.387 271.791 179.387 274C179.387 276.142 177.703 277.891 175.586 277.995L175.387 278H162.387C160.178 278 158.387 276.209 158.387 274C158.387 271.858 160.071 270.109 162.187 270.005L162.387 270H175.387ZM186.387 288C186.387 285.791 184.596 284 182.387 284H169.387L169.187 284.005C167.071 284.109 165.387 285.858 165.387 288C165.387 290.209 167.178 292 169.387 292H182.387L182.586 291.995C184.703 291.891 186.387 290.142 186.387 288Z" fill="#B9CCD4"/></g></g><g id="Object" transform="translate(1065 617) scale(1 1)"><g id="Object/Smartphone"><path id="Fill 1" fill-rule="evenodd" clip-rule="evenodd" d="M103.956 131.475L56.5999 139.305C47.8809 140.746 39.6449 134.848 38.2039 126.13L22.2169 29.4419C20.7749 20.7239 26.6749 12.4879 35.3929 11.0469L82.7499 3.21693C91.4679 1.77493 99.7039 7.67393 101.145 16.3919L117.132 113.079C118.573 121.798 112.675 130.034 103.956 131.475" fill="#001D2D"/><path id="Fill 4" fill-rule="evenodd" clip-rule="evenodd" d="M55.2967 131.412C50.9437 132.132 46.8177 129.176 46.0987 124.824L30.1117 28.1369C29.3927 23.7849 32.3477 19.6589 36.6997 18.9389L84.0567 11.1089C88.4087 10.3899 92.5347 13.3449 93.2547 17.6969L109.241 114.384C109.961 118.736 107.006 122.863 102.653 123.582L55.2967 131.412Z" fill="#418FE7"/></g></g><g id="Object" transform="translate(1205 523) scale(1 1)"><g id="Object/Idea"><g id="Group 12"><mask id="mask0_103_671448d7679d4-c336-4921-8a24-065adcf456a4" style="mask-type:alpha" maskUnits="userSpaceOnUse" x="16" y="0" width="109" height="140" fill="#ffffff"><g id="masterstickerslight-bulb-mask-2" fill="#ffffff"><path id="Vector" d="M70.5 139.718C99.1842 139.718 98.2115 139.716 98.7358 116.426C99.1842 96.5063 125 96.5063 125 54.7349C125 18.7251 94.2628 0 70.5 0C46.7372 0 16 18.7251 16 54.7349C16 96.5063 40.3816 96.5063 41.158 116.426C42.0655 139.709 41.8158 139.718 70.5 139.718Z" fill="#ffffff"/></g></mask><g mask="url(#mask0_103_671448d7679d4-c336-4921-8a24-065adcf456a4)"><path id="Mask" d="M70.5 139.538C99.1842 139.538 98.2115 139.536 98.7358 116.365C99.1842 96.5484 125 96.5484 125 54.9917C125 19.167 94.2628 0.538086 70.5 0.538086C46.7372 0.538086 16 19.167 16 54.9917C16 96.5484 40.3816 96.5484 41.158 116.365C42.0656 139.529 41.8158 139.538 70.5 139.538Z" fill="#FFE05F"/><path id="Path-117" d="M54.2993 55.537C56.484 52.376 60.8124 51.5881 63.9671 53.7772C65.3097 54.7089 66.2792 56.0825 66.7106 57.6541L66.7851 57.9511L66.976 58.7887C67.092 59.298 67.5982 59.6166 68.1065 59.5004C68.3136 59.453 68.4975 59.3373 68.6298 59.1738L68.7027 59.0701L69.92 57.0666C72.2203 53.2809 77.1478 52.0803 80.926 54.3852C82.3507 55.2542 83.4665 56.5457 84.1218 58.0765L84.2467 58.3859C84.7648 59.7504 86.2888 60.4356 87.6506 59.9164C88.0453 59.7659 88.3973 59.523 88.6777 59.2093L88.8118 59.0466L89.8884 57.6291C91.7717 55.1495 95.3044 54.6691 97.779 56.5561C99.4668 57.8431 100.284 59.9658 99.911 62.0439L99.8626 62.2835L87.994 115.174C87.6279 116.805 86.0113 117.83 84.3832 117.464C82.8132 117.11 81.8059 115.591 82.0641 114.02L82.0981 113.846L93.552 62.7994L93.4051 62.986C92.5223 64.0568 91.3963 64.9002 90.1215 65.4456L89.7998 65.5757C85.3186 67.2842 80.3037 65.0294 78.5986 60.5393C78.4433 60.1303 78.1565 59.7848 77.7835 59.5572C76.9024 59.0197 75.7667 59.2588 75.1712 60.0808L75.0818 60.2155L73.8645 62.2189C72.8831 63.8341 71.2914 64.9828 69.4516 65.4037C65.7678 66.2464 62.0994 64.0029 61.1419 60.3702L61.0844 60.1365L60.8936 59.2988C60.8433 59.078 60.7124 58.8841 60.5266 58.7552C60.1473 58.492 59.6378 58.5592 59.3378 58.8949L59.2674 58.9844L58.6011 59.9485C58.3786 60.2704 58.1372 60.5789 57.8783 60.8722C54.7187 64.4518 49.5538 65.2 45.5693 62.9212L45.5091 62.8852L58.9791 113.733C59.3919 115.291 58.5136 116.889 57.0041 117.385L56.8339 117.436C55.2785 117.85 53.6845 116.97 53.1887 115.457L53.1382 115.286L39.1808 62.5971C38.4211 59.7294 40.1254 56.7876 42.9874 56.0264C44.6389 55.5872 46.3951 55.964 47.7195 57.0297L47.9149 57.1947C49.5083 58.6068 51.9424 58.4572 53.3516 56.8606L53.4976 56.685L53.633 56.5011L54.2993 55.537Z" fill="white"/><path id="Rectangle" d="M99 121.538H41V125.538H99V121.538Z" fill="white"/><path id="Rectangle-Copy" d="M99 113.538H41V117.538H99V113.538Z" fill="white"/><path id="Rectangle_2" d="M99 130.538H41V133.538H99V130.538Z" fill="white"/></g></g></g></g><g id="Object" transform="rotate(20 1233.16 691.28) translate(1233.16 691.28) scale(1 1)"><g id="Object/Graph"><g id="Group"><path id="Path 127" fill-rule="evenodd" clip-rule="evenodd" d="M14 6V126H134V134H6V6H14Z" fill="#001D2D"/><rect id="Rectangle" x="20" y="46" width="30" height="80" fill="#7AD8DF"/><rect id="Rectangle Copy" x="58" y="76" width="30" height="50" fill="#A98AFF"/><rect id="Rectangle Copy 2" x="96" y="26" width="30" height="100" fill="#64BBF6"/></g></g></g><g id="Master/Character/Side" transform="matrix(-1 0 0 1 2377 181) scale(1 1)"><g id="Master/Character/Side"><g id="Bodies" transform="translate(297 340.421) scale(1 1)"><g id="Bodies/Blue B"><g id="Group"><path id="Mask" fill-rule="evenodd" clip-rule="evenodd" d="M362.086 371.318C382.619 359.612 401.825 343.91 412.196 322.671C422.566 301.43 422.346 273.901 407.079 255.857C393.928 240.311 372.8 234.442 352.814 230.543C287.28 217.761 219.322 217.53 153.704 229.867C135.359 233.316 116.444 238.106 102.232 250.207C80.6574 268.576 74.8264 301.471 84.5594 328.083C94.2924 354.695 117.352 374.983 143.395 386.149C168.918 397.092 197.103 400.083 224.642 400.132C254.423 400.186 283.106 400.179 312.073 392.105C329.507 387.247 346.361 380.282 362.086 371.318" fill="#7192F0"/><mask id="mask0_103_4121868f839d7-f3c8-41df-9ed4-1849928ca879" style="mask-type:alpha" maskUnits="userSpaceOnUse" x="80" y="220" width="340" height="181" fill="#ffffff"><path id="Mask_2" fill-rule="evenodd" clip-rule="evenodd" d="M362.086 371.318C382.619 359.612 401.825 343.91 412.196 322.671C422.566 301.43 422.346 273.901 407.079 255.857C393.928 240.311 372.8 234.442 352.814 230.543C287.28 217.761 219.322 217.53 153.704 229.867C135.359 233.316 116.444 238.106 102.232 250.207C80.6574 268.576 74.8264 301.471 84.5594 328.083C94.2924 354.695 117.352 374.983 143.395 386.149C168.918 397.092 197.103 400.083 224.642 400.132C254.423 400.186 283.106 400.179 312.073 392.105C329.507 387.247 346.361 380.282 362.086 371.318" fill="#ffffff"/></mask><g mask="url(#mask0_103_4121868f839d7-f3c8-41df-9ed4-1849928ca879)"><g id="Group_2"><path id="Path 23" fill-rule="evenodd" clip-rule="evenodd" d="M362.634 287.342L363.932 286.95C375.423 283.562 384.874 284.658 393.999 291.08C398.5 294.248 402.929 298.739 407.4 304.7C419.157 320.376 418.442 342.249 406.414 360.03C393.715 378.803 371.199 389.31 344.947 386.497C318.936 383.71 303.947 369.778 302.252 350.419C300.701 332.713 310.934 313.964 327.756 304.564C348.448 293 354.531 289.853 362.634 287.342ZM406.6 305.3C402.188 299.418 397.832 295.001 393.423 291.898C384.564 285.662 375.428 284.603 364.215 287.909C356.387 290.217 351.088 292.746 334.289 302.068L328.244 305.436C311.762 314.647 301.732 333.023 303.248 350.331C304.9 369.194 319.5 382.765 345.053 385.503C370.937 388.276 393.094 377.937 405.586 359.47C417.387 342.025 418.086 320.615 406.6 305.3Z" fill="white"/><path id="Path 23_2" fill-rule="evenodd" clip-rule="evenodd" d="M339.681 266.798C350.439 261.546 359.326 257.922 367.526 255.586C386.994 250.04 402.974 251.831 418.418 262.334C426.052 267.525 433.57 274.89 441.164 284.673C461.099 310.355 459.886 346.206 439.475 375.359C417.92 406.148 379.704 423.38 335.128 418.765C290.994 414.196 265.601 391.39 262.727 359.691C260.097 330.679 277.458 299.945 305.99 284.54C325.616 273.943 329.677 271.759 335.461 268.879L339.681 266.798ZM440.374 285.286C432.84 275.581 425.396 268.289 417.856 263.161C402.672 252.835 386.998 251.079 367.8 256.548C359.438 258.93 350.337 262.67 339.221 268.136C334.42 270.498 331.913 271.752 325.926 274.943L306.465 285.42C278.278 300.639 261.13 330.996 263.723 359.601C266.551 390.797 291.549 413.248 335.231 417.77C379.447 422.348 417.31 405.276 438.656 374.786C458.828 345.974 460.024 310.602 440.374 285.286Z" fill="white"/><path id="Path 23_3" fill-rule="evenodd" clip-rule="evenodd" d="M360.809 308.854L361.822 308.562C368.601 306.667 374.191 307.282 379.585 310.881C382.239 312.653 384.848 315.161 387.479 318.487C394.429 327.274 394.006 339.531 386.908 349.48C379.429 359.964 366.178 365.828 350.74 364.259C335.421 362.703 326.562 354.894 325.558 344.032C324.642 334.107 330.682 323.613 340.604 318.355C352.52 312.041 356.17 310.242 360.809 308.854ZM386.695 319.107C384.125 315.859 381.591 313.422 379.029 311.713C373.895 308.286 368.604 307.704 362.091 309.525L361.889 309.582C357.601 310.796 354.522 312.172 345.671 316.813L341.072 319.239C331.498 324.313 325.675 334.428 326.554 343.94C327.511 354.295 335.973 361.754 350.841 363.264C365.925 364.797 378.826 359.088 386.094 348.9C392.947 339.295 393.352 327.525 386.695 319.107Z" fill="white"/><path id="Path 23_4" fill-rule="evenodd" clip-rule="evenodd" d="M359.99 324.08L360.491 323.967C364.224 323.147 367.31 323.413 370.294 324.978C371.763 325.748 373.206 326.838 374.658 328.28C378.57 332.167 378.331 337.619 374.356 341.997C370.225 346.547 362.939 349.08 354.468 348.404C346.022 347.73 341.087 344.312 340.52 339.489C340.001 335.078 343.38 330.466 348.887 328.174C355.445 325.443 357.421 324.679 359.99 324.08ZM373.953 328.99C372.569 327.615 371.206 326.585 369.83 325.864C367.071 324.417 364.222 324.171 360.705 324.943C358.394 325.451 356.772 326.007 352.218 327.877L349.271 329.097C344.144 331.231 341.052 335.452 341.513 339.372C342.015 343.642 346.527 346.767 354.547 347.407C362.724 348.06 369.704 345.633 373.616 341.324C377.25 337.322 377.463 332.476 373.953 328.99Z" fill="white"/><path id="Path 24" fill-rule="evenodd" clip-rule="evenodd" d="M162.877 186.667C201.624 143.313 253.903 107.509 293.902 99.5097C333.108 91.6684 361.017 101.778 375.301 125.114C387.521 145.078 387.988 173.088 377.451 195.215C364.059 223.338 327.651 252.732 268.159 283.474C210.701 302.849 165.556 302.849 132.745 283.43C109.531 269.692 123.481 230.746 162.877 186.667ZM376.548 194.785C386.945 172.952 386.485 145.3 374.448 125.636C360.398 102.682 332.916 92.7267 294.098 100.49C254.345 108.441 202.239 144.126 163.622 187.333C124.617 230.975 110.88 269.328 133.254 282.57C165.776 301.817 210.632 301.817 267.77 282.556C327.014 251.935 363.273 222.662 376.548 194.785Z" fill="white"/><path id="Path 24_2" fill-rule="evenodd" clip-rule="evenodd" d="M187.021 189.185C215.382 156.234 253.647 129.022 282.942 122.938C311.679 116.97 332.156 124.673 342.635 142.448C351.593 157.645 351.935 178.957 344.213 195.796C334.403 217.188 307.751 239.53 264.19 262.903C222.122 277.633 189.054 277.633 165.01 262.857C147.933 252.362 158.158 222.719 187.021 189.185ZM343.304 195.379C350.895 178.827 350.559 157.859 341.773 142.956C331.525 125.571 311.484 118.032 283.145 123.917C254.102 129.949 216.009 157.038 187.779 189.837C159.292 222.935 149.264 252.006 165.534 262.005C189.281 276.599 222.049 276.599 263.788 261.99C307.103 238.744 333.607 216.524 343.304 195.379Z" fill="white"/><path id="Path 24_3" fill-rule="evenodd" clip-rule="evenodd" d="M209.484 191.552C227.971 170.498 252.914 153.111 272.028 149.22C290.804 145.398 304.209 150.341 311.072 161.753C316.938 171.506 317.161 185.172 312.108 195.972C305.829 209.393 289.014 223.376 261.6 237.993L259.908 238.889C232.477 248.304 210.899 248.304 195.196 238.844C183.928 232.057 190.623 213.031 209.484 191.552ZM311.203 195.548C316.119 185.039 315.902 171.724 310.215 162.268C303.584 151.242 290.61 146.458 272.228 150.2C253.362 154.041 228.592 171.307 210.235 192.212C191.759 213.254 185.268 231.697 195.712 237.988C211.122 247.271 232.406 247.271 259.513 237.974C287.681 223.155 304.911 208.997 311.203 195.548Z" fill="white"/><path id="Path 24_4" fill-rule="evenodd" clip-rule="evenodd" d="M233.971 198.094C241.697 187.41 252.121 178.585 260.159 176.599C268.113 174.632 273.838 177.195 276.75 183.075C279.218 188.058 279.311 195.018 277.189 200.526C274.502 207.502 267.234 214.754 255.321 222.356C243.816 227.151 234.722 227.151 228.088 222.298C223.348 218.831 225.926 209.486 233.439 198.839L233.971 198.094ZM276.256 200.166C278.282 194.91 278.192 188.24 275.854 183.519C273.152 178.065 267.903 175.714 260.399 177.569C252.637 179.488 242.382 188.169 234.781 198.68C227.169 209.206 224.496 218.431 228.678 221.491C234.987 226.106 243.724 226.106 254.859 221.473C266.532 214.016 273.661 206.902 276.256 200.166Z" fill="white"/><path id="Path 25" fill-rule="evenodd" clip-rule="evenodd" d="M398.751 183.162C394.675 128.671 423.968 77.4256 474.834 59.5283C500.464 50.5104 523.819 58.1532 542.408 79.4682C559.157 98.6731 570.979 128.07 575.245 159.808C579.56 191.907 575.74 223.21 564.038 245.994C550.913 271.55 528.802 285.156 498.972 283.499C468.831 281.825 444.186 270.312 426.536 250.883C410.325 233.038 400.693 209.114 398.751 183.162ZM574.254 159.942C570.012 128.385 558.263 99.17 541.654 80.1255C523.32 59.1033 500.386 51.5979 475.166 60.4716C424.751 78.2101 395.704 129.025 399.748 183.088C401.674 208.825 411.221 232.537 427.276 250.211C444.748 269.443 469.146 280.841 499.028 282.501C528.45 284.135 550.198 270.752 563.149 245.537C574.749 222.952 578.544 191.852 574.254 159.942Z" fill="white"/><path id="Path 26" fill-rule="evenodd" clip-rule="evenodd" d="M372.542 241.124C368.553 237.577 368.314 232.937 372.613 227.683C381.584 216.719 398.251 217.098 401.479 227.856C404.579 238.19 397.312 247.534 386.95 246.498C381.309 245.933 375.751 243.976 372.542 241.124ZM387.049 245.503C396.688 246.466 403.421 237.81 400.521 228.144C397.556 218.262 381.905 217.906 373.387 228.317C369.42 233.164 369.628 237.195 373.207 240.376C376.235 243.068 381.6 244.958 387.049 245.503Z" fill="white"/><path id="Path 27" fill-rule="evenodd" clip-rule="evenodd" d="M20.25 421.735C21.3476 384.143 44.1186 352.464 85.8214 336.533C138.614 316.365 177.355 309.591 205.658 319.026C240.108 330.509 256.786 366.229 253.499 431.025C250.289 494.314 223.778 529.427 180.85 538.24C145.98 545.399 101.921 533.841 67.7256 511.418C37.5067 491.602 19.2302 456.666 20.25 421.735ZM252.5 430.975C255.767 366.579 239.291 331.291 205.342 319.974C177.324 310.635 138.768 317.377 86.1783 337.467C44.8507 353.255 22.3354 384.578 21.2496 421.765C20.2399 456.348 38.3451 490.956 68.274 510.582C102.264 532.871 146.065 544.36 180.649 537.26C223.103 528.545 249.312 493.832 252.5 430.975Z" fill="white"/><path id="Path 27_2" fill-rule="evenodd" clip-rule="evenodd" d="M50.5867 423.268C51.3995 395.416 68.2643 371.944 99.1386 360.144C138.188 345.22 166.847 340.207 187.806 347.196C213.336 355.71 225.689 382.18 223.257 430.148C220.881 477.005 201.246 503.023 169.454 509.552C143.641 514.854 111.04 506.298 85.7378 489.699C63.3632 475.021 49.8315 449.144 50.5867 423.268ZM222.259 430.097C224.67 382.53 212.518 356.491 187.489 348.145C166.817 341.251 138.342 346.232 99.4956 361.078C68.9966 372.735 52.3873 395.851 51.5863 423.297C50.8412 448.825 64.2017 474.375 86.2863 488.863C111.384 505.328 143.726 513.815 169.253 508.573C200.571 502.14 219.905 476.523 222.259 430.097Z" fill="white"/><path id="Path 27_3" fill-rule="evenodd" clip-rule="evenodd" d="M70.5797 424.264C71.2049 402.742 84.1768 384.602 107.914 375.487C137.906 363.97 159.923 360.1 176.041 365.501C195.692 372.085 205.196 392.545 203.327 429.578C201.501 465.758 186.397 485.865 161.943 490.912C142.1 495.007 117.05 488.401 97.6077 475.586C80.4032 464.246 69.999 444.256 70.5797 424.264ZM202.328 429.527C204.177 392.895 194.873 372.865 175.723 366.449C159.892 361.145 138.061 364.982 108.273 376.42C84.9103 385.392 72.1927 403.176 71.5793 424.293C71.0087 443.938 81.2427 463.602 98.1581 474.752C117.395 487.431 142.185 493.968 161.741 489.932C185.721 484.984 200.524 465.276 202.328 429.527Z" fill="white"/><path id="Path 27_4" fill-rule="evenodd" clip-rule="evenodd" d="M107.567 426.15C107.845 416.62 113.617 408.584 124.152 404.556C137.387 399.496 147.113 397.794 154.275 400.183C163.05 403.11 167.282 412.183 166.455 428.498C165.647 444.448 158.926 453.358 148.048 455.593C139.249 457.401 128.17 454.492 119.57 448.848C111.929 443.833 107.309 434.995 107.567 426.15ZM165.457 428.447C166.263 412.533 162.232 403.892 153.958 401.132C147.082 398.838 137.541 400.507 124.509 405.49C114.349 409.375 108.833 417.055 108.566 426.18C108.319 434.676 112.767 443.187 120.118 448.012C128.514 453.521 139.334 456.362 147.847 454.613C158.25 452.475 164.67 443.966 165.457 428.447Z" fill="white"/><path id="Path 34" fill-rule="evenodd" clip-rule="evenodd" d="M19.5796 328.576C-11.4297 243.166 -5.75585 186.46 36.7252 158.582C65.8641 139.46 87.263 154.962 98.7296 194.36C108.052 226.39 108.91 270.851 101.474 293.158C92.0574 321.408 65.1721 334.178 20.9693 331.499L20.6435 331.479L19.5796 328.576ZM100.525 292.842C107.892 270.741 107.038 226.485 97.7695 194.64C86.4636 155.794 65.7085 140.758 37.2739 159.418C-5.14929 187.258 -10.4604 244.352 21.4686 330.827L21.3555 330.519L22.3385 330.576C64.9197 332.879 90.8403 320.568 100.243 293.67L100.525 292.842Z" fill="white"/><path id="Path 34_2" fill-rule="evenodd" clip-rule="evenodd" d="M14.6452 320.781C-8.58225 253.041 -4.33074 208.054 27.523 185.921C49.4393 170.693 65.5447 183.046 74.1466 214.34C81.1298 239.744 81.7724 275.004 76.2003 292.703C69.1338 315.149 48.947 325.302 15.7976 323.174L15.4667 323.153L14.6452 320.781ZM75.2464 292.403C80.7566 274.9 80.1174 239.834 73.1824 214.605C64.7352 183.874 49.2811 172.02 28.0936 186.742C-3.5689 208.743 -7.57826 253.859 16.192 322.196L16.1918 322.196L16.3017 322.511C16.2651 322.406 16.2285 322.301 16.192 322.196L16.8397 322.236C48.6641 324.059 68.0131 314.328 75.0353 293.058L75.2464 292.403Z" fill="white"/></g></g></g><g id="Group 2"><path id="Mask_3" fill-rule="evenodd" clip-rule="evenodd" d="M173 432.671C179.305 415.741 194.413 407.055 218.304 403.365C240.694 399.908 280.799 397.843 303.623 399.214C321.21 400.271 334.314 404.494 344.813 414.667C371.433 440.463 328.228 465.613 298.732 474.401C268.904 483.289 224.217 483.557 196.974 470.245C180.424 462.158 167.512 447.408 173 432.671" fill="#418FE7"/><mask id="mask1_103_4121868f839d7-f3c8-41df-9ed4-1849928ca879" style="mask-type:alpha" maskUnits="userSpaceOnUse" x="171" y="398" width="183" height="83" fill="#ffffff"><path id="Mask_4" fill-rule="evenodd" clip-rule="evenodd" d="M173 432.671C179.305 415.741 194.413 407.055 218.304 403.365C240.694 399.908 280.799 397.843 303.623 399.214C321.21 400.271 334.314 404.494 344.813 414.667C371.433 440.463 328.228 465.613 298.732 474.401C268.904 483.289 224.217 483.557 196.974 470.245C180.424 462.158 167.512 447.408 173 432.671" fill="#ffffff"/></mask><g mask="url(#mask1_103_4121868f839d7-f3c8-41df-9ed4-1849928ca879)"><g id="Group_3"><path id="Path 23_5" fill-rule="evenodd" clip-rule="evenodd" d="M216.681 466.798C227.439 461.546 236.326 457.922 244.527 455.586C263.995 450.04 279.974 451.831 295.419 462.334C303.052 467.525 310.57 474.89 318.164 484.673C338.099 510.356 336.887 546.206 316.476 575.359C294.92 606.148 256.704 623.38 212.128 618.765C167.994 614.196 142.602 591.39 139.728 559.691C137.098 530.679 154.459 499.946 182.99 484.54C202.616 473.943 206.677 471.759 212.462 468.879L216.681 466.798ZM317.374 485.287C309.841 475.581 302.397 468.289 294.856 463.161C279.673 452.835 263.999 451.079 244.801 456.548C236.439 458.93 227.337 462.67 216.222 468.136C211.42 470.498 208.914 471.752 202.927 474.943L183.466 485.42C155.279 500.639 138.131 530.996 140.724 559.601C143.552 590.797 168.55 613.248 212.231 617.771C256.448 622.348 294.31 605.276 315.657 574.786C335.828 545.974 337.025 510.602 317.374 485.287Z" fill="white"/><path id="Path 24_5" fill-rule="evenodd" clip-rule="evenodd" d="M39.8772 386.667C78.6248 343.313 130.904 307.509 170.902 299.51C210.108 291.668 238.017 301.778 252.301 325.114C264.522 345.078 264.988 373.088 254.451 395.215C241.059 423.338 204.652 452.732 145.16 483.474C87.7013 502.849 42.5569 502.849 9.74538 483.43C-13.4684 469.692 0.481038 430.747 39.8772 386.667ZM253.549 394.785C263.945 372.952 263.485 345.3 251.449 325.636C237.398 302.682 209.916 292.727 171.098 300.49C131.346 308.441 79.239 344.126 40.6228 387.333C1.61785 430.975 -12.1194 469.328 10.2547 482.57C42.7766 501.817 87.6321 501.817 144.77 482.556C204.015 451.935 240.274 422.662 253.549 394.785Z" fill="white"/><path id="Path 24_6" fill-rule="evenodd" clip-rule="evenodd" d="M64.0215 389.185C92.3828 356.234 130.648 329.022 159.943 322.938C188.68 316.97 209.157 324.673 219.635 342.448C228.594 357.645 228.935 378.957 221.213 395.796C211.404 417.188 184.752 439.531 141.19 462.903C99.1223 477.633 66.0546 477.633 42.0108 462.857C24.9333 452.362 35.1582 422.719 64.0215 389.185ZM220.304 395.379C227.895 378.827 227.559 357.859 218.774 342.956C208.525 325.571 188.484 318.032 160.146 323.917C131.103 329.949 93.0099 357.038 64.7795 389.837C36.2922 422.935 26.2643 452.006 42.5344 462.005C66.282 476.599 99.0494 476.599 140.789 461.99C184.104 438.744 210.608 416.524 220.304 395.379Z" fill="white"/><path id="Path 24_7" fill-rule="evenodd" clip-rule="evenodd" d="M86.485 391.552C104.972 370.498 129.915 353.111 149.029 349.22C167.805 345.398 181.21 350.341 188.073 361.753C193.939 371.506 194.162 385.172 189.109 395.972C182.83 409.393 166.015 423.376 138.601 437.993L136.909 438.889C109.478 448.304 87.9 448.304 72.1965 438.844C60.929 432.057 67.6242 413.031 86.485 391.552ZM188.204 395.548C193.12 385.039 192.903 371.724 187.216 362.268C180.585 351.242 167.611 346.458 149.229 350.2C130.363 354.041 105.593 371.307 87.2364 392.212C68.7597 413.254 62.2694 431.697 72.7125 437.988C88.1233 447.271 109.407 447.271 136.514 437.974C164.682 423.155 181.911 408.997 188.204 395.548Z" fill="white"/><path id="Path 25_2" fill-rule="evenodd" clip-rule="evenodd" d="M275.752 383.162C271.675 328.671 300.969 277.426 351.834 259.528C377.464 250.51 400.819 258.153 419.408 279.468C436.157 298.673 447.98 328.07 452.246 359.808C456.561 391.907 452.741 423.21 441.039 445.994C427.913 471.55 405.802 485.156 375.973 483.499C345.832 481.825 321.187 470.312 303.537 450.883C287.325 433.038 277.693 409.114 275.752 383.162ZM451.255 359.942C447.013 328.385 435.264 299.17 418.655 280.126C400.321 259.103 377.386 251.598 352.166 260.472C301.752 278.21 272.704 329.025 276.749 383.088C278.674 408.825 288.221 432.537 304.277 450.211C321.749 469.443 346.147 480.841 376.028 482.501C405.45 484.135 427.199 470.752 440.149 445.537C451.749 422.952 455.544 391.852 451.255 359.942Z" fill="white"/><path id="Path 25_3" fill-rule="evenodd" clip-rule="evenodd" d="M307.408 378.739C304.787 342.158 323.631 307.749 356.366 295.726C372.901 289.654 387.976 294.803 399.956 309.141C410.73 322.037 418.331 341.763 421.073 363.059C423.847 384.597 421.391 405.603 413.863 420.9C405.408 438.085 391.146 447.245 371.917 446.13C334.251 443.946 310.093 416.188 307.408 378.739ZM420.081 363.187C417.361 342.068 409.829 322.518 399.188 309.782C387.464 295.75 372.821 290.748 356.711 296.665C324.424 308.523 305.814 342.505 308.406 378.668C311.056 415.645 334.846 442.979 371.975 445.132C390.785 446.223 404.681 437.297 412.966 420.459C420.398 405.355 422.831 384.543 420.081 363.187Z" fill="white"/><path id="Path 25_4" fill-rule="evenodd" clip-rule="evenodd" d="M324.351 376.2C322.372 345.851 336.603 317.296 361.349 307.309C373.891 302.247 385.331 306.541 394.399 318.467C402.536 329.169 408.273 345.531 410.343 363.194C412.437 381.055 410.583 398.476 404.9 411.168C398.505 425.448 387.7 433.074 373.128 432.145C344.637 430.33 326.378 407.277 324.351 376.2ZM409.35 363.31C407.299 345.813 401.621 329.617 393.603 319.072C384.788 307.48 373.809 303.359 361.724 308.236C337.419 318.045 323.395 346.183 325.349 376.134C327.346 406.752 345.259 429.368 373.192 431.147C387.316 432.047 397.753 424.681 403.987 410.759C409.589 398.248 411.424 381.005 409.35 363.31Z" fill="white"/><path id="Path 26_2" fill-rule="evenodd" clip-rule="evenodd" d="M249.543 441.124C245.553 437.577 245.315 432.937 249.613 427.683C258.584 416.719 275.252 417.098 278.479 427.856C281.579 438.19 274.312 447.534 263.95 446.498C258.309 445.933 252.752 443.976 249.543 441.124ZM264.05 445.503C273.688 446.466 280.421 437.81 277.521 428.144C274.557 418.262 258.905 417.906 250.387 428.317C246.421 433.164 246.628 437.195 250.207 440.376C253.236 443.068 258.6 444.958 264.05 445.503Z" fill="white"/></g></g></g><g id="Group 3"><path id="Mask_5" fill-rule="evenodd" clip-rule="evenodd" d="M120.01 191.589C90.6146 164.371 80.3056 116.785 100.238 82.034C117.951 51.15 154.034 35.558 188.992 28.808C208.597 25.023 229.563 23.493 247.95 31.276C264.428 38.249 277.253 52.198 285.704 67.969C300.706 95.966 302.661 130.622 290.903 160.128C281.517 183.679 260.725 209.613 236.014 218.325C215.838 225.439 184.192 221.141 164.288 215.692C147.923 211.21 132.495 203.149 120.01 191.589" fill="#418FE7"/><mask id="mask2_103_4121868f839d7-f3c8-41df-9ed4-1849928ca879" style="mask-type:alpha" maskUnits="userSpaceOnUse" x="89" y="25" width="210" height="198" fill="#ffffff"><path id="Mask_6" fill-rule="evenodd" clip-rule="evenodd" d="M120.01 191.589C90.6146 164.371 80.3056 116.785 100.238 82.034C117.951 51.15 154.034 35.558 188.992 28.808C208.597 25.023 229.563 23.493 247.95 31.276C264.428 38.249 277.253 52.198 285.704 67.969C300.706 95.966 302.661 130.622 290.903 160.128C281.517 183.679 260.725 209.613 236.014 218.325C215.838 225.439 184.192 221.141 164.288 215.692C147.923 211.21 132.495 203.149 120.01 191.589" fill="#ffffff"/></mask><g mask="url(#mask2_103_4121868f839d7-f3c8-41df-9ed4-1849928ca879)"><g id="Group_4"><path id="Path 23_6" fill-rule="evenodd" clip-rule="evenodd" d="M317.634 163.342L318.933 162.95C330.424 159.562 339.874 160.658 348.999 167.08C353.5 170.248 357.929 174.739 362.4 180.7C374.158 196.376 373.443 218.249 361.414 236.03C348.715 254.803 326.2 265.31 299.947 262.497C273.937 259.71 258.948 245.778 257.252 226.419C255.701 208.713 265.935 189.964 282.756 180.564C303.449 169 309.532 165.853 317.634 163.342ZM361.6 181.3C357.189 175.418 352.832 171.001 348.423 167.898C339.564 161.662 330.429 160.603 319.215 163.909C311.388 166.217 306.089 168.746 289.289 178.068L283.244 181.436C266.762 190.647 256.732 209.023 258.248 226.331C259.901 245.194 274.5 258.765 300.054 261.503C325.938 264.276 348.094 253.937 360.586 235.47C372.387 218.025 373.087 196.615 361.6 181.3Z" fill="white"/><path id="Path 23_7" fill-rule="evenodd" clip-rule="evenodd" d="M294.681 142.798C305.439 137.546 314.326 133.922 322.527 131.586C341.995 126.04 357.974 127.831 373.419 138.334C381.052 143.525 388.57 150.89 396.164 160.673C416.099 186.355 414.887 222.206 394.476 251.359C372.92 282.148 334.704 299.38 290.128 294.765C245.994 290.196 220.602 267.39 217.728 235.691C215.098 206.679 232.459 175.945 260.99 160.54C280.616 149.943 284.677 147.759 290.462 144.879L294.681 142.798ZM395.374 161.286C387.841 151.581 380.397 144.289 372.856 139.161C357.673 128.835 341.999 127.079 322.801 132.548C314.439 134.93 305.337 138.67 294.222 144.136C289.42 146.498 286.914 147.752 280.927 150.943L261.466 161.42C233.279 176.639 216.131 206.996 218.724 235.601C221.552 266.797 246.55 289.248 290.231 293.77C334.448 298.348 372.31 281.276 393.657 250.786C413.828 221.974 415.025 186.602 395.374 161.286Z" fill="white"/><path id="Path 23_8" fill-rule="evenodd" clip-rule="evenodd" d="M315.81 184.854L316.823 184.562C323.601 182.667 329.192 183.282 334.585 186.881C337.24 188.653 339.849 191.161 342.479 194.487C349.429 203.274 349.007 215.531 341.909 225.48C334.43 235.964 321.179 241.828 305.74 240.259C290.422 238.703 281.562 230.894 280.559 220.032C279.642 210.107 285.682 199.613 295.605 194.355C307.521 188.041 311.171 186.242 315.81 184.854ZM341.695 195.107C339.126 191.859 336.591 189.422 334.03 187.713C328.895 184.286 323.605 183.704 317.092 185.525L316.89 185.582C312.601 186.796 309.523 188.172 300.671 192.813L296.073 195.239C286.498 200.313 280.676 210.428 281.555 219.94C282.511 230.295 290.973 237.754 305.841 239.264C320.925 240.797 333.826 235.088 341.095 224.9C347.947 215.295 348.353 203.525 341.695 195.107Z" fill="white"/><path id="Path 23_9" fill-rule="evenodd" clip-rule="evenodd" d="M314.991 200.08L315.491 199.967C319.224 199.147 322.311 199.413 325.295 200.978C326.764 201.748 328.206 202.838 329.658 204.28C333.571 208.167 333.332 213.619 329.357 217.997C325.225 222.547 317.94 225.08 309.468 224.404C301.023 223.73 296.087 220.312 295.52 215.489C295.002 211.078 298.38 206.466 303.887 204.174C310.445 201.443 312.422 200.679 314.991 200.08ZM328.954 204.99C327.569 203.615 326.206 202.585 324.83 201.864C322.072 200.417 319.223 200.171 315.706 200.943C313.394 201.451 311.772 202.007 307.218 203.877L304.272 205.097C299.144 207.231 296.052 211.452 296.513 215.372C297.015 219.642 301.528 222.767 309.548 223.407C317.725 224.06 324.704 221.633 328.617 217.324C332.251 213.322 332.463 208.476 328.954 204.99Z" fill="white"/><path id="Path 24_8" fill-rule="evenodd" clip-rule="evenodd" d="M117.877 62.6668C156.625 19.3128 208.904 -16.4906 248.902 -24.4903C288.108 -32.3316 316.017 -22.2216 330.301 1.11395C342.522 21.0781 342.988 49.0878 332.451 71.215C319.059 99.3383 282.652 128.732 223.16 159.474C165.701 178.849 120.557 178.849 87.7454 159.43C64.5316 145.692 78.481 106.746 117.877 62.6668ZM331.549 70.785C341.945 48.9519 341.485 21.2995 329.449 1.63603C315.398 -21.3179 287.916 -31.2733 249.098 -23.5097C209.346 -15.5592 157.239 20.1263 118.623 63.3332C79.6179 106.975 65.8806 145.328 88.2547 158.57C120.777 177.817 165.632 177.817 222.77 158.556C282.015 127.935 318.274 98.6617 331.549 70.785Z" fill="white"/><path id="Path 24_9" fill-rule="evenodd" clip-rule="evenodd" d="M142.022 65.1849C170.383 32.234 208.648 5.02192 237.943 -1.0619C266.68 -7.02989 287.157 0.672741 297.635 18.4481C306.594 33.6453 306.935 54.9574 299.213 71.7962C289.404 93.1876 262.752 115.53 219.19 138.903C177.122 153.633 144.055 153.633 120.011 138.857C102.933 128.362 113.158 98.7192 142.022 65.1849ZM298.304 71.3793C305.895 54.8268 305.559 33.8591 296.774 18.9559C286.525 1.57066 266.484 -5.96796 238.146 -0.0827961C209.103 5.94883 171.01 33.0383 142.779 65.8373C114.292 98.9346 104.264 128.006 120.534 138.005C144.282 152.599 177.049 152.599 218.789 137.99C262.104 114.744 288.608 92.5244 298.304 71.3793Z" fill="white"/><path id="Path 24_10" fill-rule="evenodd" clip-rule="evenodd" d="M164.485 67.5519C182.972 46.4978 207.915 29.1113 227.029 25.2202C245.805 21.3981 259.21 26.3407 266.073 37.7525C271.939 47.5057 272.162 61.1719 267.109 71.9716C260.83 85.3934 244.015 99.3761 216.601 113.993L214.909 114.889C187.478 124.304 165.9 124.304 150.197 114.844C138.929 108.057 145.624 89.0314 164.485 67.5519ZM266.204 71.5478C271.12 61.0385 270.903 47.7235 265.216 38.2679C258.585 27.2417 245.611 22.458 227.229 26.2001C208.363 30.0406 183.593 47.307 165.236 68.2117C146.76 89.2537 140.269 107.697 150.713 113.988C166.123 123.271 187.407 123.271 214.514 113.974C242.682 99.1549 259.911 84.997 266.204 71.5478Z" fill="white"/><path id="Path 24_11" fill-rule="evenodd" clip-rule="evenodd" d="M188.971 74.0942C196.697 63.4095 207.122 54.5855 215.16 52.5986C223.114 50.6324 228.838 53.1954 231.75 59.0755C234.218 64.0582 234.312 71.0182 232.19 76.5258C229.502 83.5021 222.234 90.7542 210.321 98.3557C198.816 103.151 189.722 103.151 183.088 98.2977C178.349 94.8309 180.926 85.4858 188.439 74.839L188.971 74.0942ZM231.257 76.1663C233.282 70.9097 233.192 64.2399 230.854 59.5193C228.153 54.0647 222.904 51.7144 215.4 53.5693C207.638 55.4881 197.382 64.1691 189.781 74.6801C182.17 85.2063 179.496 94.4314 183.679 97.4906C189.988 102.106 198.724 102.106 209.86 97.4728C221.533 90.0157 228.662 82.9024 231.257 76.1663Z" fill="white"/><path id="Path 27_5" fill-rule="evenodd" clip-rule="evenodd" d="M-24.7495 297.735C-23.6519 260.143 -0.880947 228.464 40.8219 212.533C93.6148 192.365 132.355 185.591 160.658 195.026C195.109 206.509 211.786 242.229 208.5 307.025C205.289 370.314 178.778 405.427 135.851 414.24C100.98 421.399 56.921 409.841 22.7261 387.418C-7.49281 367.602 -25.7693 332.666 -24.7495 297.735ZM207.501 306.975C210.767 242.579 194.291 207.291 160.342 195.974C132.325 186.635 93.7689 193.377 41.1787 213.467C-0.148808 229.255 -22.6642 260.578 -23.7499 297.765C-24.7596 332.348 -6.65437 366.956 23.2745 386.582C57.2646 408.871 101.065 420.36 135.65 413.26C178.103 404.545 204.313 369.832 207.501 306.975Z" fill="white"/><path id="Path 27_6" fill-rule="evenodd" clip-rule="evenodd" d="M5.58717 299.268C6.40002 271.416 23.2648 247.944 54.1391 236.144C93.1883 221.22 121.848 216.207 142.806 223.196C168.336 231.71 180.69 258.18 178.258 306.148C175.882 353.005 156.246 379.023 124.454 385.552C98.6416 390.854 66.0407 382.298 40.7383 365.699C18.3637 351.021 4.83199 325.144 5.58717 299.268ZM177.259 306.097C179.671 258.53 167.518 232.491 142.49 224.145C121.817 217.251 93.3424 222.232 54.4961 237.078C23.9971 248.735 7.38774 271.851 6.58674 299.297C5.84171 324.825 19.2022 350.375 41.2868 364.863C66.3845 381.328 98.7267 389.815 124.253 384.573C155.571 378.14 174.905 352.523 177.259 306.097Z" fill="white"/><path id="Path 35" fill-rule="evenodd" clip-rule="evenodd" d="M-15.9959 -18.7541C-8.68538 -42.9427 1.49853 -67.7673 14.5554 -93.2281C23.8857 -111.422 55.0745 -117.535 98.3067 -112.622C136.254 -108.31 178.756 -95.7098 204.245 -81.4362C227.863 -68.2097 217.908 -41.4688 184.433 -15.3558C151.482 10.3486 106.168 27.31 71.9593 24.4983C23.1276 20.4848 -6.36846 6.74228 -16.4593 -16.803L-16.5305 -16.9692L-15.9959 -18.7541ZM203.756 -80.5637C178.391 -94.768 136.016 -107.33 98.1938 -111.628C55.3498 -116.497 24.5127 -110.454 15.4452 -92.7718C2.15689 -66.8597 -8.14754 -41.6129 -15.4686 -17.0317L-15.4687 -17.032L-15.5205 -16.8575C-15.5032 -16.9156 -15.4859 -16.9736 -15.4686 -17.0317L-15.2371 -16.5062C-5.14861 5.96597 23.4393 19.2843 70.592 23.3792L72.0412 23.5017C105.972 26.2905 151.05 9.41747 183.818 -16.1442C216.82 -41.8886 226.481 -67.8377 203.756 -80.5637Z" fill="white"/><path id="Path 36" fill-rule="evenodd" clip-rule="evenodd" d="M73.1296 46.6645C77.7761 41.529 85.0315 38.5 92.0004 38.5C99.0312 38.5 105.429 40.4711 108.979 44.0214C113.149 48.1918 113.183 54.1277 108.416 61.2773C103.089 69.2691 95.2048 76.3044 88.057 79.0909C79.5807 82.3952 72.8501 79.6556 69.5285 70.1652C66.2299 60.7406 67.7502 52.6103 73.1296 46.6645ZM108.272 44.7286C104.937 41.3941 98.7898 39.5 92.0004 39.5C85.3065 39.5 78.3224 42.4157 73.8712 47.3355C68.7412 53.0054 67.2929 60.7507 70.4723 69.8348C73.6 78.771 79.7269 81.2649 87.6938 78.1591C94.6313 75.4547 102.362 68.5556 107.584 60.7227C112.105 53.9416 112.075 48.5312 108.272 44.7286Z" fill="white"/><path id="Path 36_2" fill-rule="evenodd" clip-rule="evenodd" d="M79.3188 64.7829C76.0542 55.8206 82.5135 48.9609 90.9792 48.9609C94.6114 48.9609 97.9233 49.9414 99.7821 51.7274C102.003 53.8611 102.021 56.9063 99.5285 60.4982C96.7913 64.4432 92.7427 67.9146 89.0563 69.2954C84.6256 70.9549 81.059 69.5601 79.3188 64.7829ZM99.0892 52.4484C97.446 50.8696 94.3767 49.9609 90.9792 49.9609C83.1435 49.9609 77.2599 56.2091 80.2584 64.4406C81.7988 68.6692 84.7723 69.8321 88.7056 68.3589C92.1838 67.0561 96.0779 63.7172 98.7069 59.9281C100.939 56.7115 100.924 54.2114 99.0892 52.4484Z" fill="white"/></g></g></g><g id="Group 4"><path id="Mask_7" fill-rule="evenodd" clip-rule="evenodd" d="M300.791 200.575C287.995 180.96 288.228 153.025 303.161 134.985C318.095 116.944 347.343 111.946 366.261 125.752C377.633 134.052 384.324 147.57 387.099 161.372C389.715 174.388 389.123 188.262 383.908 200.472C378.092 214.087 363.802 230.873 347.739 229.49C329.39 227.909 310.723 215.801 300.791 200.575" fill="#64BBF6"/><mask id="mask3_103_4121868f839d7-f3c8-41df-9ed4-1849928ca879" style="mask-type:alpha" maskUnits="userSpaceOnUse" x="291" y="117" width="98" height="113" fill="#ffffff"><path id="Mask_8" fill-rule="evenodd" clip-rule="evenodd" d="M300.791 200.575C287.995 180.96 288.228 153.025 303.161 134.985C318.095 116.944 347.343 111.946 366.261 125.752C377.633 134.052 384.324 147.57 387.099 161.372C389.715 174.388 389.123 188.262 383.908 200.472C378.092 214.087 363.802 230.873 347.739 229.49C329.39 227.909 310.723 215.801 300.791 200.575" fill="#ffffff"/></mask><g mask="url(#mask3_103_4121868f839d7-f3c8-41df-9ed4-1849928ca879)"><g id="Group_5"><path id="Path 24_12" fill-rule="evenodd" clip-rule="evenodd" d="M288.877 245.667C327.624 202.313 379.903 166.509 419.902 158.51C459.108 150.668 487.017 160.778 501.301 184.114C513.521 204.078 513.988 232.088 503.451 254.215C490.059 282.338 453.651 311.732 394.159 342.474C336.701 361.849 291.556 361.849 258.745 342.43C235.531 328.692 249.481 289.746 288.877 245.667ZM502.548 253.785C512.945 231.952 512.485 204.3 500.448 184.636C486.398 161.682 458.916 151.727 420.098 159.49C380.345 167.441 328.239 203.126 289.622 246.333C250.617 289.975 236.88 328.328 259.254 341.57C291.776 360.817 336.632 360.817 393.77 341.556C453.014 310.935 489.273 281.662 502.548 253.785Z" fill="white"/><path id="Path 24_13" fill-rule="evenodd" clip-rule="evenodd" d="M313.021 248.185C341.382 215.234 379.647 188.022 408.942 181.938C437.679 175.97 458.156 183.673 468.635 201.448C477.593 216.645 477.935 237.957 470.213 254.796C460.403 276.188 433.751 298.53 390.19 321.903C348.122 336.633 315.054 336.633 291.01 321.857C273.933 311.362 284.158 281.719 313.021 248.185ZM469.304 254.379C476.895 237.827 476.559 216.859 467.773 201.956C457.525 184.571 437.484 177.032 409.145 182.917C380.102 188.949 342.009 216.038 313.779 248.837C285.292 281.935 275.264 311.006 291.534 321.005C315.281 335.599 348.049 335.599 389.788 320.99C433.103 297.744 459.607 275.524 469.304 254.379Z" fill="white"/><path id="Path 24_14" fill-rule="evenodd" clip-rule="evenodd" d="M335.484 250.552C353.971 229.498 378.914 212.111 398.028 208.22C416.804 204.398 430.209 209.341 437.072 220.753C442.938 230.506 443.161 244.172 438.108 254.972C431.829 268.393 415.014 282.376 387.6 296.993L385.908 297.889C358.477 307.304 336.899 307.304 321.196 297.844C309.928 291.057 316.623 272.031 335.484 250.552ZM437.203 254.548C442.119 244.039 441.902 230.724 436.215 221.268C429.584 210.242 416.61 205.458 398.228 209.2C379.362 213.041 354.592 230.307 336.235 251.212C317.759 272.254 311.268 290.697 321.712 296.988C337.122 306.271 358.406 306.271 385.513 296.974C413.681 282.155 430.911 267.997 437.203 254.548Z" fill="white"/><path id="Path 35_2" fill-rule="evenodd" clip-rule="evenodd" d="M155.003 164.246C162.314 140.057 172.498 115.233 185.555 89.7719C194.885 71.5777 226.074 65.4655 269.306 70.3782C307.254 74.6904 349.755 87.2902 375.244 101.564C398.863 114.79 388.907 141.531 355.432 167.644C322.481 193.349 277.167 210.31 242.959 207.498C194.127 203.485 164.631 189.742 154.54 166.197L154.469 166.031L155.003 164.246ZM374.755 102.436C349.39 88.232 307.016 75.6698 269.193 71.3718C226.349 66.5032 195.512 72.5464 186.444 90.2282C173.156 116.14 162.852 141.387 155.531 165.968L155.531 165.968L155.479 166.142C155.496 166.084 155.513 166.026 155.531 165.968L155.762 166.494C165.851 188.966 194.439 202.284 241.591 206.379L243.04 206.502C276.971 209.29 322.049 192.417 354.817 166.856C387.819 141.111 397.48 115.162 374.755 102.436Z" fill="white"/><path id="Path 35_3" fill-rule="evenodd" clip-rule="evenodd" d="M165.65 151.71C171.678 128.118 180.064 103.906 190.808 79.0747C198.518 61.2554 224.313 55.2636 260.026 60.0737C291.358 64.2937 326.448 76.6229 347.495 90.5925C366.99 103.532 358.787 129.644 331.158 155.19C303.949 180.347 266.525 196.95 238.251 194.195C197.922 190.267 173.546 176.806 165.217 153.77L165.165 153.627L165.65 151.71ZM346.942 91.4256C326.028 77.5443 291.082 65.2654 259.893 61.0647C224.581 56.3087 199.196 62.2048 191.725 79.4718C180.757 104.823 172.252 129.523 166.21 153.572L166.21 153.572L166.172 153.722C166.185 153.672 166.197 153.622 166.21 153.572L166.407 154.105C174.728 176.074 198.281 189.079 237.153 193.08L238.348 193.2C266.298 195.923 303.461 179.436 330.479 154.456C357.703 129.285 365.687 103.867 346.942 91.4256Z" fill="white"/><path id="Path 35_4" fill-rule="evenodd" clip-rule="evenodd" d="M178.927 141.324C183.381 123.942 189.558 106.107 197.459 87.8189L197.635 87.4234C203.575 74.4595 222.588 70.1325 248.789 73.6668C271.98 76.7953 297.95 85.9346 313.534 96.294C328.049 105.943 321.954 125.375 301.468 144.347C281.319 163.005 253.607 175.318 232.654 173.274C202.783 170.359 184.71 160.363 178.529 143.244L178.478 143.101L178.927 141.324ZM312.98 97.1268C297.53 86.8558 271.703 77.767 248.655 74.6579C222.591 71.1419 203.871 75.4969 198.377 88.2155C190.25 107.027 183.953 125.353 179.485 143.196L179.523 143.047L179.654 143.403C185.788 159.622 203.163 169.231 231.869 172.19L232.751 172.278C253.38 174.291 280.831 162.094 300.788 143.613C320.87 125.017 326.747 106.278 312.98 97.1268Z" fill="white"/></g></g></g><g id="Group 5"><path id="Mask_9" fill-rule="evenodd" clip-rule="evenodd" d="M298.869 96.9474C286.401 79.4724 287.029 53.7874 300.296 36.9114C313.563 20.0364 337.336 17.3594 357.306 25.2354C377.274 33.1114 389.812 51.8644 388.109 73.2634C384.425 119.556 325.635 134.462 298.869 96.9474" fill="#7192F0"/><mask id="mask4_103_4121868f839d7-f3c8-41df-9ed4-1849928ca879" style="mask-type:alpha" maskUnits="userSpaceOnUse" x="289" y="21" width="100" height="98" fill="#ffffff"><path id="Mask_10" fill-rule="evenodd" clip-rule="evenodd" d="M298.869 96.9474C286.401 79.4724 287.029 53.7874 300.296 36.9114C313.563 20.0364 337.336 17.3594 357.306 25.2354C377.274 33.1114 389.812 51.8644 388.109 73.2634C384.425 119.556 325.635 134.462 298.869 96.9474" fill="#ffffff"/></mask><g mask="url(#mask4_103_4121868f839d7-f3c8-41df-9ed4-1849928ca879)"><g id="Group_6"><path id="Path 23_10" fill-rule="evenodd" clip-rule="evenodd" d="M362.634 24.342L363.933 23.9497C375.424 20.5619 384.874 21.658 393.999 28.0802C398.5 31.2484 402.929 35.7389 407.4 41.7C419.158 57.3763 418.443 79.2493 406.414 97.0302C393.715 115.803 371.2 126.31 344.947 123.497C318.937 120.71 303.948 106.778 302.252 87.4186C300.701 69.713 310.935 50.9638 327.756 41.5635C348.449 30.0001 354.532 26.8526 362.634 24.342ZM406.6 42.3C402.189 36.4178 397.832 32.001 393.423 28.8979C384.564 22.6624 375.429 21.603 364.215 24.9089C356.388 27.2167 351.089 29.7461 334.289 39.0684L328.244 42.4365C311.762 51.6471 301.732 70.023 303.248 87.3314C304.901 106.194 319.5 119.765 345.054 122.503C370.938 125.276 393.094 114.937 405.586 96.4699C417.387 79.0249 418.087 57.6154 406.6 42.3Z" fill="white"/><path id="Path 23_11" fill-rule="evenodd" clip-rule="evenodd" d="M339.681 3.79761C350.439 -1.45393 359.326 -5.07808 367.527 -7.4141C386.995 -12.9599 402.974 -11.1693 418.419 -0.666287C426.052 4.52516 433.57 11.8901 441.164 21.6733C461.099 47.3554 459.887 83.206 439.476 112.359C417.92 143.148 379.704 160.38 335.128 155.765C290.994 151.196 265.602 128.39 262.728 96.6909C260.098 67.679 277.459 36.9454 305.99 21.5399C325.616 10.9431 329.677 8.7585 335.462 5.87865L339.681 3.79761ZM440.374 22.2865C432.841 12.5812 425.397 5.28869 417.856 0.160618C402.673 -10.1649 386.999 -11.9213 367.801 -6.45236C359.439 -4.07035 350.337 -0.33003 339.222 5.13637C334.42 7.49759 331.914 8.75232 325.927 11.9429L306.466 22.4198C278.279 37.6391 261.131 67.9959 263.724 96.6006C266.552 127.797 291.55 150.248 335.231 154.77C379.448 159.348 417.31 142.276 438.657 111.786C458.828 82.974 460.025 47.602 440.374 22.2865Z" fill="white"/><path id="Path 23_12" fill-rule="evenodd" clip-rule="evenodd" d="M360.81 45.8544L361.823 45.5619C368.601 43.6669 374.192 44.2817 379.585 47.8812C382.24 49.653 384.849 52.1612 387.479 55.4871C394.429 64.2739 394.007 76.5309 386.909 86.4804C379.43 96.964 366.179 102.828 350.74 101.259C335.422 99.703 326.562 91.8939 325.559 81.0318C324.642 71.107 330.682 60.6132 340.605 55.3555C352.521 49.0411 356.171 47.2419 360.81 45.8544ZM386.695 56.1075C384.126 52.8589 381.591 50.4224 379.03 48.713C373.895 45.286 368.605 44.7043 362.092 46.525L361.89 46.5818C357.601 47.7961 354.523 49.1721 345.671 53.8128L341.073 56.2391C331.498 61.3126 325.676 71.4277 326.555 80.9398C327.511 91.2952 335.973 98.7539 350.841 100.264C365.925 101.797 378.826 96.0882 386.095 85.8996C392.947 76.2946 393.353 64.5247 386.695 56.1075Z" fill="white"/><path id="Path 23_13" fill-rule="evenodd" clip-rule="evenodd" d="M359.991 61.0797L360.491 60.9665C364.224 60.1466 367.311 60.4132 370.295 61.9779C371.764 62.7483 373.206 63.8379 374.658 65.2804C378.571 69.167 378.332 74.6188 374.357 78.9967C370.225 83.5474 362.94 86.0803 354.468 85.404C346.023 84.7299 341.087 81.3116 340.52 76.4885C340.002 72.0781 343.38 67.4665 348.887 65.1735C355.445 62.4432 357.422 61.679 359.991 61.0797ZM373.954 65.9898C372.569 64.6147 371.206 63.5851 369.83 62.8635C367.072 61.4169 364.223 61.1707 360.706 61.9432C358.394 62.451 356.772 63.0071 352.218 64.8766L349.272 66.0967C344.144 68.2314 341.052 72.4521 341.513 76.3718C342.015 80.642 346.528 83.767 354.548 84.4072C362.725 85.0599 369.704 82.6333 373.617 78.3244C377.251 74.3218 377.463 69.4763 373.954 65.9898Z" fill="white"/><path id="Path 24_15" fill-rule="evenodd" clip-rule="evenodd" d="M162.877 -76.3332C201.625 -119.687 253.904 -155.491 293.902 -163.49C333.108 -171.332 361.017 -161.222 375.301 -137.886C387.522 -117.922 387.988 -89.9122 377.451 -67.785C364.059 -39.6617 327.652 -10.2684 268.16 20.4738C210.701 39.8493 165.557 39.8493 132.745 20.4303C109.532 6.69153 123.481 -32.2535 162.877 -76.3332ZM376.549 -68.215C386.945 -90.0481 386.485 -117.7 374.449 -137.364C360.398 -160.318 332.916 -170.273 294.098 -162.51C254.346 -154.559 202.239 -118.874 163.623 -75.6668C124.618 -32.0249 110.881 6.32787 133.255 19.5697C165.777 38.8173 210.632 38.8173 267.77 19.5558C327.015 -11.065 363.274 -40.3383 376.549 -68.215Z" fill="white"/></g></g></g></g></g><g id="Upper/Side" transform="translate(0 235) scale(1 1)"><g id="Upper/Side/Presenting"><path id="Combined Shape" fill-rule="evenodd" clip-rule="evenodd" d="M665.894 149.27C666.612 151.359 668.887 152.47 670.976 151.75C767.086 118.641 857.649 81.0128 942.663 38.8639C943.332 38.5325 943.894 38.0208 944.288 37.3864L963.69 6.08115C964.855 4.20272 964.277 1.73636 962.4 0.572362C960.523 -0.591636 958.058 -0.012488 956.894 1.86594L938.093 32.1999L935.896 33.2863C852.128 74.6362 762.955 111.602 668.375 144.184C666.287 144.903 665.176 147.18 665.894 149.27ZM699.046 277.264L860.843 368.853L902.452 364.608C904.582 364.391 906.492 365.89 906.81 367.985L906.836 368.184C907.053 370.316 905.555 372.227 903.461 372.545L903.263 372.57L860.389 376.944C859.648 377.02 858.902 376.887 858.235 376.562L858.015 376.446L501.027 174.365C499.104 173.277 498.428 170.836 499.515 168.912C500.567 167.05 502.886 166.356 504.776 167.299L504.964 167.399L691.085 272.757C838.427 182.625 948.904 106.837 1022.48 45.4311C1024.18 44.0154 1026.7 44.2431 1028.11 45.9399C1029.53 47.6366 1029.3 50.1598 1027.6 51.5756C954.307 112.746 844.799 187.963 699.046 277.264ZM989.124 61.9259C987.359 63.2558 984.852 62.9032 983.524 61.1383C982.239 59.4304 982.528 57.0257 984.147 55.6671L984.314 55.5348L1020.2 28.4882C1021.96 27.1583 1024.47 27.5109 1025.8 29.2758C1027.08 30.9837 1026.8 33.3884 1025.18 34.747L1025.01 34.8793L989.124 61.9259ZM962.482 39.0977C963.875 40.8123 966.393 41.0722 968.108 39.6782L1003.39 10.9848L1003.56 10.8465C1005.12 9.42902 1005.32 7.01537 1003.98 5.35603C1002.58 3.64138 1000.07 3.38147 998.351 4.77551L963.065 33.4689L962.904 33.6072C961.336 35.0247 961.135 37.4383 962.482 39.0977ZM979.476 50.4744C977.752 51.8567 975.235 51.5796 973.855 49.8554C972.518 48.1869 972.736 45.7746 974.314 44.368L974.476 44.2307L1014.93 11.7912C1016.66 10.4089 1019.17 10.6861 1020.55 12.4102C1021.89 14.0788 1021.67 16.491 1020.09 17.8976L1019.93 18.0349L979.476 50.4744ZM486.256 303.53C487.008 301.526 489.195 300.48 491.21 301.122L491.405 301.19L896.265 453.251C898.333 454.027 899.38 456.334 898.604 458.403C897.852 460.408 895.665 461.454 893.65 460.811L893.455 460.744L488.595 308.683C486.527 307.906 485.48 305.599 486.256 303.53ZM867.961 426.136C865.926 425.557 863.773 426.671 863.084 428.698C862.373 430.791 863.492 433.064 865.583 433.775L915.566 450.782L915.762 450.843C917.797 451.422 919.95 450.308 920.638 448.281C921.349 446.189 920.231 443.916 918.14 443.205L868.157 426.198L867.961 426.136ZM870.055 412.772C870.701 410.731 872.83 409.572 874.877 410.108L875.075 410.165L935.054 429.173C937.159 429.84 938.326 432.089 937.659 434.196C937.013 436.237 934.884 437.396 932.837 436.86L932.64 436.803L872.66 417.795C870.555 417.128 869.389 414.879 870.055 412.772ZM877.737 392.067C875.673 391.604 873.586 392.839 873.014 394.902C872.423 397.031 873.668 399.237 875.796 399.828L929.778 414.834L929.977 414.885C932.042 415.347 934.128 414.113 934.701 412.05C935.292 409.92 934.046 407.715 931.918 407.123L877.937 392.117L877.737 392.067Z" fill="#001D2D"/></g></g><g id="Heads" transform="translate(501.137 165.421) scale(1 1)"><g id="Heads/Round"><g id="Group"><path id="Mask" fill-rule="evenodd" clip-rule="evenodd" d="M47.8853 158.865C25.3601 142.804 11.3334 114.08 16.5839 86.9978C20.9135 64.6678 37.5081 45.918 57.6551 35.1981C78.0299 24.3572 102.496 20.9762 124.83 26.8607C147.164 32.7452 167.018 48.0703 177.433 68.5993C187.849 89.1282 188.336 114.596 177.845 135.087C160.227 169.498 116.452 181.839 80.8188 173.474C69.0478 170.71 57.7361 165.888 47.8853 158.865" fill="#A98AFF"/><mask id="mask0_103_43690603d3653-80ca-4a8e-a1df-94817324df16" style="mask-type:alpha" maskUnits="userSpaceOnUse" x="15" y="23" width="171" height="153" fill="#ffffff"><path id="Mask_2" fill-rule="evenodd" clip-rule="evenodd" d="M47.8853 158.865C25.3601 142.804 11.3334 114.08 16.5839 86.9978C20.9135 64.6678 37.5081 45.918 57.6551 35.1981C78.0299 24.3572 102.496 20.9762 124.83 26.8607C147.164 32.7452 167.018 48.0703 177.433 68.5993C187.849 89.1282 188.336 114.596 177.845 135.087C160.227 169.498 116.452 181.839 80.8188 173.474C69.0478 170.71 57.7361 165.888 47.8853 158.865" fill="#ffffff"/></mask><g mask="url(#mask0_103_43690603d3653-80ca-4a8e-a1df-94817324df16)"><g id="Group_2"><path id="Path 7" d="M163.489 218.998L149.606 216.214C122.358 210.754 104.766 208.448 82.0838 208.448C65.2124 208.448 49.6803 210.445 28.1349 214.693L9.27087 218.502C8.22566 218.71 7.34979 218.882 6.73962 218.998L4.55298 219.409C-1.13258 220.457 -5.68271 221.139 -9.77664 221.522C-20.6233 222.537 -28.1731 221.368 -33.5139 217.358L-33.8084 217.132L-33.1921 216.344C-28.0805 220.345 -20.6871 221.539 -9.86984 220.526L-8.8446 220.425C-4.87455 220.013 -0.427605 219.322 5.08853 218.292L8.43106 217.649C13.9969 216.549 25.8625 214.125 25.6479 214.168L26.8018 213.937C49.0004 209.523 64.8376 207.448 82.0838 207.448C104.495 207.448 121.951 209.691 148.548 214.983L160.303 217.348C162.042 217.696 163.546 217.992 165.022 218.278L167.757 218.801C172.196 219.639 176.071 220.308 179.81 220.873C189.143 222.284 197.464 223 205.732 223C230.819 223 262.583 199.878 300.949 153.592L302.114 152.182L302.886 152.818C263.822 200.258 231.463 224 205.732 224C197.41 224 189.04 223.28 179.66 221.862L178.151 221.63C174.609 221.074 170.901 220.419 166.675 219.614L163.489 218.998Z" fill="white"/><path id="Path 10" d="M303.383 143.322C281.82 168.978 256.429 186.538 227.218 195.994C217.238 199.225 205.111 200.116 189.819 199.106L188.04 198.981C177.568 198.202 169.979 197.21 150.455 194.123L134.847 191.637C124.966 190.078 118.194 189.091 111.149 188.214L110.141 188.089C84.2256 184.913 63.9113 184.745 45.8622 188.433L45.0555 188.601C4.96859 197.08 -21.0787 193.621 -33.0433 178.11L-33.4016 177.637L-32.5983 177.041C-21.2154 192.394 4.18584 196.042 43.6484 187.874L44.8486 187.622C62.6867 183.849 82.6487 183.857 107.948 186.819L110.262 187.097C117.353 187.966 124.007 188.923 133.608 190.43L153.848 193.645C170.981 196.33 178.277 197.252 188.115 197.984C204.131 199.176 216.69 198.351 226.91 195.042C255.623 185.748 280.623 168.572 301.917 143.507L302.617 142.678L303.383 143.322Z" fill="white"/><path id="Path 11" d="M302.527 129.104L302.472 130.103C286.631 129.227 274.083 133.391 256.316 143.701L254.145 144.975C253.441 145.392 252.713 145.827 251.923 146.302L244.69 150.68C231.303 158.766 222.866 163.107 212.644 166.52C199.717 170.836 186.238 172.439 171.018 170.981L170.064 170.886C132.375 166.98 95.0559 169.319 51.0834 176.157L47.924 176.656C39.0019 178.093 18.0032 181.675 14.2882 182.249C-5.85525 185.367 -21.8285 178.768 -33.5546 162.482L-33.9087 161.985L-33.0918 161.408C-21.6691 177.582 -6.15168 184.219 13.5374 181.351L15.711 181.008C22.2926 179.932 42.2194 176.539 49.2758 175.428C93.4929 168.465 130.969 165.987 168.75 169.748L170.167 169.892C185.636 171.495 199.264 169.932 212.327 165.571C222.274 162.25 230.533 158.034 243.438 150.267L251.007 145.686C252.228 144.951 253.293 144.316 254.336 143.701L255.82 142.832C273.494 132.578 286.105 128.332 301.869 129.071L302.527 129.104Z" fill="white"/><path id="Path 12" fill-rule="evenodd" clip-rule="evenodd" d="M27.0121 135.233C37.3586 136.572 45.7403 139.573 49.7809 143.678C54.5133 148.486 53.1673 154.447 45.1414 160.873C29.4294 173.453 13.95 177.86 1.74272 174.343C-9.48892 171.107 -16.4998 161.388 -16.4998 149.109C-16.4998 137.738 4.44489 132.313 27.0121 135.233ZM2.01957 173.382C13.8821 176.8 29.0389 172.484 44.5164 160.092C52.1277 153.998 53.3234 148.703 49.0682 144.38C45.221 140.471 37.0284 137.538 26.8838 136.225L26.2239 136.142C4.46704 133.482 -15.4998 138.758 -15.4998 149.109C-15.4998 160.95 -8.77568 170.272 2.01957 173.382Z" fill="white"/><path id="Path 12_2" fill-rule="evenodd" clip-rule="evenodd" d="M23.2213 142.96C29.8004 143.801 35.1346 145.689 37.7252 148.29C40.8093 151.387 39.9289 155.24 34.7752 159.319C24.797 167.215 14.9507 169.986 7.16982 167.77C-0.0126837 165.725 -4.50034 159.576 -4.50034 151.818C-4.50034 144.684 8.31887 141.259 22.3602 142.856L23.2213 142.96ZM7.4437 166.808C14.8834 168.927 24.41 166.246 34.1546 158.534C38.8891 154.788 39.616 151.606 37.0167 148.996C34.6195 146.589 29.4729 144.768 23.0944 143.952C9.27882 142.184 -3.50034 145.456 -3.50034 151.818C-3.50034 159.135 0.697426 164.887 7.4437 166.808Z" fill="white"/><path id="Path 12_3" fill-rule="evenodd" clip-rule="evenodd" d="M20.1736 149.687C22.6884 150.033 24.7368 150.812 25.7609 151.917C27.0382 153.296 26.6718 155.02 24.6368 156.751C17.141 163.128 9.50016 160.789 9.50016 153.527C9.50016 150.347 14.6565 148.928 20.1736 149.687ZM10.5002 153.527C10.5002 159.846 17.0861 161.862 23.9888 155.99C25.6331 154.591 25.8648 153.501 25.0273 152.597C24.1955 151.699 22.3441 150.995 20.0374 150.678C15.0654 149.994 10.5002 151.25 10.5002 153.527Z" fill="white"/><path id="Path 13" d="M302.523 118.595L302.476 119.594C271.633 118.122 246.768 119.408 226.069 123.089C209.894 125.966 197.098 130.041 183.535 136.026L182.125 136.654C178.056 138.501 165.558 144.466 161.907 146.083L161.703 146.173C147.584 152.35 136.094 154.762 120.357 153.808C98.4359 152.48 82.9822 147.985 65.2803 139.368L63.2183 138.349C60.9308 137.189 50.8102 131.995 47.7905 130.563C36.8746 125.387 28.1829 123.016 17.5716 123.016C-5.33515 123.016 -22.0944 130.768 -32.7642 146.273L-33.0857 146.746L-33.9151 146.187C-23.0644 130.074 -5.88228 122.016 17.5716 122.016C28.104 122.016 36.7771 124.317 47.4696 129.307L48.5776 129.831C52.2382 131.595 62.9369 137.095 64.0326 137.64C82.3406 146.745 97.9466 151.448 120.418 152.81C135.701 153.736 146.907 151.459 160.542 145.586L161.729 145.067C165.781 143.256 178.692 137.091 182.157 135.543C196.153 129.292 209.249 125.065 225.894 122.104C246.366 118.463 270.877 117.158 301.163 118.532L302.523 118.595Z" fill="white"/><path id="Path 14" fill-rule="evenodd" clip-rule="evenodd" d="M208.344 134.542C227.61 129.665 245.515 128.381 247.591 132.418C248.929 135.021 247.012 137.967 242.517 141.25C239.415 143.515 235.148 145.903 229.806 148.474L229.373 148.68C225.887 150.334 219.012 153.352 215.424 154.927C214.36 155.394 213.585 155.734 213.273 155.875L212.574 156.207C207.07 158.814 199.435 161.464 192.861 162.507C182.837 164.099 176.059 161.973 174.179 154.964C172.248 147.768 186.254 140.209 207.76 134.691L208.344 134.542ZM230.002 147.268C235 144.837 239.006 142.576 241.927 140.443C246.058 137.426 247.725 134.865 246.702 132.875C244.959 129.487 226.836 130.829 208.008 135.66L207.385 135.821C186.883 141.158 173.471 148.467 175.145 154.705C176.854 161.075 183.122 163.041 192.705 161.519C199.394 160.458 207.242 157.691 212.699 155.038C212.832 154.973 213.739 154.575 215.086 153.983C218.706 152.394 225.498 149.412 228.942 147.778L230.002 147.268Z" fill="white"/><path id="Path 14_2" fill-rule="evenodd" clip-rule="evenodd" d="M202.165 142.146C212.991 139.295 223.025 138.532 224.253 140.984C225.051 142.576 223.948 144.316 221.408 146.22C219.897 147.353 217.89 148.537 215.42 149.797L214.407 150.305C212.579 151.208 208.547 153.025 206.504 153.945C205.925 154.206 205.505 154.395 205.342 154.471L204.85 154.711C201.824 156.169 197.68 157.636 194.099 158.22C188.504 159.131 184.672 157.897 183.605 153.815C182.525 149.682 189.866 145.499 201.29 142.381L202.165 142.146ZM214.959 148.909C217.385 147.672 219.349 146.514 220.808 145.42C222.995 143.78 223.856 142.422 223.359 141.431C222.483 139.683 212.589 140.435 202.42 143.113L201.976 143.231C190.938 146.195 183.707 150.251 184.572 153.562C185.472 157.004 188.788 158.072 193.938 157.233C197.577 156.64 201.856 155.091 204.827 153.608C204.902 153.571 205.409 153.342 206.158 153.004C208.236 152.068 212.179 150.29 213.964 149.408L214.959 148.909Z" fill="white"/><path id="Path 15" d="M302.148 109.181L301.851 110.135C277.974 102.691 257.587 99.8228 238.376 100.633C223.76 101.249 211.607 103.582 192.592 108.765L180.574 112.094C161.106 117.439 150.049 119.769 135.584 121.033C115.79 122.763 94.8907 121.263 70.6743 115.801L69.4187 115.515C-3.48474 98.7416 -40.316 113.131 -41.4762 158.617L-41.5004 160.005L-42.5004 159.995C-42.0531 113.077 -5.27631 97.7808 67.4288 114.038L69.643 114.541C94.2935 120.212 115.468 121.788 135.497 120.037L136.797 119.92C151.209 118.576 162.506 116.075 183.016 110.382L190.369 108.338L192.333 107.799C211.412 102.599 223.628 100.253 238.334 99.6335C257.352 98.8319 277.504 101.611 300.991 108.823L302.148 109.181Z" fill="white"/><path id="Path 16" d="M317.392 88.0484L316.609 88.6712C299.409 67.0612 281.34 58.8096 260.008 60.7842C250.973 61.6206 241.349 64.2453 229.941 68.7212L228.587 69.2579C224.951 70.7118 221.12 72.3528 216.756 74.3107L212.901 76.0585C211.542 76.6804 210.117 77.338 208.495 78.0908L198.033 82.9661L196.224 83.804C169.912 95.9502 153.651 101.784 135.016 104.385C87.0364 111.083 31.605 101.871 -31.2788 76.7601L-33.1867 75.9943L-32.8125 75.0669C30.7077 100.695 86.6045 110.134 134.878 103.395C153.6 100.781 169.946 94.8704 196.706 82.4792L209.637 76.4596C210.977 75.8403 212.195 75.2806 213.384 74.7386L213.829 74.5361C219.562 71.928 224.366 69.8533 228.898 68.0576L229.576 67.7903C241.064 63.2829 250.774 60.6347 259.916 59.7885C281.376 57.8019 299.619 66.0148 316.869 87.3965L317.392 88.0484Z" fill="white"/><path id="Path 16 Copy" d="M311.633 7.34754L310.997 8.11936C289.68 -9.44228 270.29 -13.7568 249.835 -7.3902C241.171 -4.69367 232.302 -0.125228 222.075 6.62459L220.862 7.43122C217.608 9.60916 214.201 12.0109 210.34 14.8333L206.933 17.3444C205.733 18.2353 204.475 19.1749 203.046 20.2483L193.826 27.1922L192.23 28.3881C169.019 45.7393 154.326 54.8263 136.639 61.2453C91.1004 77.7723 34.965 80.2863 -31.7655 68.7985L-33.7909 68.4461L-33.6177 67.4612C33.8428 79.3226 90.4805 76.9335 136.298 60.3053C154.068 53.856 168.828 44.676 192.427 26.992L203.824 18.4153C205.005 17.5312 206.08 16.7303 207.131 15.9529L207.524 15.6624C212.589 11.9192 216.856 8.89122 220.917 6.19238L221.524 5.78997C231.824 -1.00737 240.772 -5.61661 249.538 -8.34502C270.116 -14.7501 289.667 -10.5095 310.986 6.81844L311.633 7.34754Z" fill="white"/><path id="Path 18" fill-rule="evenodd" clip-rule="evenodd" d="M54.6341 5.5C72.6751 5.5 90.1009 11.6346 100.852 20.7407C111.26 29.5561 112.649 39.0459 103.002 43.6747C92.8631 48.5396 68.8468 53.755 46.8197 55.6868L46.032 55.7546C20.1099 57.946 1.2281 55.4635 -4.62082 47.5083C-10.9033 38.9635 -6.63821 28.4241 5.60749 19.7176C17.8601 11.0062 36.105 5.5 54.6341 5.5ZM47.4477 54.6268C69.1682 52.6556 92.6679 47.5241 102.569 42.7731C111.226 38.6193 110.188 30.2626 100.791 22.0089L100.206 21.5037C89.6388 12.5537 72.4428 6.5 54.6341 6.5C36.3074 6.5 18.2656 11.9449 6.18694 20.5326C-5.66111 28.9564 -9.69349 38.9208 -3.81515 46.916C1.79353 54.5444 20.7726 56.9673 46.7323 54.6906L47.4477 54.6268Z" fill="white"/><path id="Path 18_2" fill-rule="evenodd" clip-rule="evenodd" d="M53.9436 22C66.0869 22 77.8193 25.0713 85.0702 29.638C92.2055 34.132 93.2009 39.1882 86.4894 41.5829C79.8666 43.9458 64.4651 46.4715 50.0224 47.5024L48.0821 47.6322C30.6492 48.7221 17.9909 47.4786 14.0151 43.4576C9.61152 39.004 12.5877 33.5355 20.9385 29.1205C29.1945 24.7557 41.4744 22 53.9436 22ZM85.5267 40.8563L86.1534 40.641C91.8683 38.602 91.0816 34.6059 84.5372 30.4842C77.4538 26.0229 65.9061 23 53.9436 23C41.6304 23 29.5105 25.7198 21.4059 30.0046C13.5558 34.1548 10.9526 38.9381 14.7261 42.7545C18.3197 46.389 30.3465 47.6442 46.8427 46.7045L48.6271 46.5954C62.9197 45.6634 78.473 43.1929 85.5267 40.8563Z" fill="white"/><path id="Path 18_3" fill-rule="evenodd" clip-rule="evenodd" d="M67.0327 35.0829C68.692 35.9641 69.7308 36.923 69.9549 37.8827C70.2211 39.0229 69.3714 39.9093 67.6622 40.4236C59.1212 42.9932 36.7019 44.2261 33.0631 41.1229C30.7249 39.1287 32.2886 36.7059 36.4104 34.8684C40.3587 33.1082 46.2148 32 52.1594 32C57.9545 32 63.5562 33.2365 67.0327 35.0829ZM33.712 40.362C36.9905 43.158 59.1536 41.9392 67.3741 39.466C68.6421 39.0845 69.0976 38.6093 68.981 38.11C68.8407 37.5088 67.9899 36.7235 66.5636 35.966C63.2405 34.2011 57.7991 33 52.1594 33C46.3483 33 40.6301 34.0821 36.8176 35.7817C33.2543 37.3702 32.1714 39.0481 33.712 40.362Z" fill="white"/><path id="Path 19" d="M316.92 47.229L316.079 47.7709C310.567 39.2227 299.868 34.4233 283.661 32.3797L282.234 32.2078C270.375 30.8357 259.178 30.8457 234.149 31.78L223.348 32.1881C214.254 32.5153 207.809 32.6666 201.44 32.6666C185.527 32.6666 173.948 29.9899 161.091 23.9666L160.376 23.6285C154.804 20.9746 133.906 9.38183 131.054 7.8856C116.975 0.498523 103.057 -5.59697 85.8477 -11.4702C83.9857 -12.1057 82.094 -12.7348 80.1709 -13.3577C34.1916 -28.251 -7.17063 -13.6633 -43.9993 30.4709L-45.1139 31.8173L-45.8867 31.1826C-8.53138 -14.3012 33.6192 -29.4875 80.4791 -14.309C82.4071 -13.6845 84.3038 -13.0538 86.1707 -12.4166C102.977 -6.68098 116.658 -0.731692 130.404 6.41775L131.884 7.19394C135.784 9.28048 154.99 19.919 160.606 22.6301L160.806 22.7257C173.582 28.8118 184.964 31.5658 200.569 31.6639L201.44 31.6666C207.608 31.6666 213.851 31.5243 222.519 31.2171L236.477 30.6937C260.43 29.8264 271.277 29.8804 283.111 31.3044L284.447 31.4728C300.331 33.5683 310.995 38.3641 316.686 46.8723L316.92 47.229Z" fill="white"/></g></g></g></g></g><g id="Face" transform="translate(582 235.421) scale(1 1)"><g id="Face/Face"><g id="MOUTH"><g id="Group"><path id="Clip 11" fill-rule="evenodd" clip-rule="evenodd" d="M24.9999 38.5633C10.9824 34.7403 13.9999 54.5633 24.9999 57.5633C35.9999 60.5633 42.9999 60.5633 52.9999 57.5633C66.6922 53.4556 65.482 34.4026 52.9999 38.5633C43.9999 41.5633 35.9999 41.5633 24.9999 38.5633Z" fill="white"/><mask id="mask0_103_434102cdb200b-ad92-48db-93c9-ed9e2a323caa" style="mask-type:alpha" maskUnits="userSpaceOnUse" x="15" y="37" width="48" height="23" fill="#ffffff"><path id="Clip 11_2" fill-rule="evenodd" clip-rule="evenodd" d="M24.9999 38.5633C10.9824 34.7403 13.9999 54.5633 24.9999 57.5633C35.9999 60.5633 42.9999 60.5633 52.9999 57.5633C66.6922 53.4556 65.482 34.4026 52.9999 38.5633C43.9999 41.5633 35.9999 41.5633 24.9999 38.5633Z" fill="#ffffff"/></mask><g mask="url(#mask0_103_434102cdb200b-ad92-48db-93c9-ed9e2a323caa)"><path id="Fill 7" fill-rule="evenodd" clip-rule="evenodd" d="M27.5685 66.605L25.0205 33.197L27.6045 33L30.1535 66.407L27.5685 66.605Z" fill="#BEDBEA"/><path id="Fill 4" fill-rule="evenodd" clip-rule="evenodd" d="M40.9148 69.0913L38.3218 69.0583L38.7258 37.2753L41.3178 37.3073L40.9148 69.0913Z" fill="#BEDBEA"/><path id="Fill 10" fill-rule="evenodd" clip-rule="evenodd" d="M52.4081 74.4683L49.8311 74.1903L54.2211 33.5633L56.8001 33.8413L52.4081 74.4683Z" fill="#BEDBEA"/></g></g></g><g id="EYES"><path id="Fill 1" d="M65.5302 21.9005C68.7192 22.4315 72.2132 20.8015 73.6692 17.9155C76.8882 11.5345 69.4722 6.0005 63.5982 8.7005C57.4312 11.5365 58.9212 20.7995 65.5302 21.9005" fill="#001D2D"/><path id="Fill 4_2" d="M14.9191 21.9005C11.7301 22.4315 8.23606 20.8015 6.78006 17.9155C3.56006 11.5345 10.9761 6.0005 16.8501 8.7005C23.0181 11.5365 21.5291 20.7995 14.9191 21.9005" fill="#001D2D"/></g></g></g><g id="Lower/Side" transform="translate(0 700) scale(1 1)"><g id="Lower/Side/Presenting"><path id="Legs" fill-rule="evenodd" clip-rule="evenodd" d="M659.116 66.3397C658.75 64.1609 656.687 62.6906 654.506 63.0556C652.326 63.4206 650.854 65.4828 651.22 67.6615C669.641 177.536 693.411 297.61 722.53 427.887L724.319 435.876C724.697 437.562 726.117 438.814 727.838 438.981L773.376 443.405L773.597 443.433C774.843 443.624 775.932 444.394 776.526 445.515C777.561 447.467 776.815 449.888 774.861 450.921L703.688 488.57L703.595 488.615C701.59 489.546 699.209 488.677 698.277 486.674C635.308 351.343 591.676 258.319 567.377 207.591L564.103 200.77C570.255 157.121 575.251 113.314 579.093 69.3485C579.285 67.1477 577.655 65.2079 575.453 65.0158C573.25 64.8237 571.309 66.452 571.117 68.6527C559.579 200.711 537.584 331.333 505.133 460.521C504.731 462.122 505.354 463.805 506.702 464.759L534.928 484.736L535.111 484.873C536.06 485.629 536.618 486.779 536.618 488L536.613 488.2C536.509 490.316 534.758 492 532.615 492H460.878L460.362 477.05C453.601 280.608 450.15 151.272 450.011 89.091L450.006 85.2531C450.006 83.044 448.214 81.2531 446.003 81.2531C443.792 81.2531 442 83.044 442 85.2531C442 145.353 445.383 273.963 452.148 471.135L453.011 496.139C453.086 498.293 454.855 500 457.012 500H532.615L532.92 499.996C539.411 499.834 544.624 494.525 544.624 488L544.619 487.647C544.508 483.888 542.638 480.389 539.556 478.208L513.563 459.811L514.839 454.691C534.507 375.338 550.245 295.445 562.054 215.012C584.017 260.95 620.594 338.858 671.779 448.726L691.017 490.047C693.814 496.057 700.956 498.663 706.97 495.869C707.047 495.833 707.124 495.797 707.2 495.759C707.31 495.706 707.418 495.65 707.526 495.593L778.607 457.992L778.879 457.843C784.538 454.664 786.657 447.537 783.602 441.772L783.436 441.469C781.512 438.076 778.05 435.821 774.15 435.443L731.498 431.298L729.455 422.163C700.771 293.555 677.325 174.946 659.116 66.3397Z" fill="#001D2D"/></g></g><g id="Head Accesory" transform="matrix(-0.707107 0.707107 0.707107 0.707107 460 -17.4214) scale(1 1)"><g id="Head Accesory/Cap"><path id="Fill 1" fill-rule="evenodd" clip-rule="evenodd" d="M111.985 154C77.141 154 58 169.852 58 199.969V199.97H196.699C198.264 199.97 199.56 198.755 199.662 197.194C199.774 195.481 198.415 194.031 196.699 194.031H138.822C139.985 176.21 146.829 154 111.985 154" fill="#FF7272"/></g></g></g></g></g></svg>