<?xml version="1.0" standalone="no"?>
<!DOCTYPE svg PUBLIC "-//W3C//DTD SVG 20010904//EN"
 "http://www.w3.org/TR/2001/REC-SVG-20010904/DTD/svg10.dtd">
<svg version="1.0" xmlns="http://www.w3.org/2000/svg"
 width="94.000000pt" height="71.000000pt" viewBox="0 0 94.000000 71.000000"
 preserveAspectRatio="xMidYMid meet">
<metadata>
Created by potrace 1.10, written by Peter Selinger 2001-2011
</metadata>
<g transform="translate(0.000000,71.000000) scale(0.050000,-0.050000)"
fill="#40bad5" stroke="none">
<path d="M109 1315 c-5 -14 -7 -246 -4 -515 l5 -490 850 0 850 0 0 510 0 510
-846 5 c-672 4 -847 0 -855 -20z m1396 -53 l235 -2 0 -440 0 -440 -780 0 -780
0 0 440 0 439 355 6 c195 3 441 4 545 2 105 -1 296 -3 425 -5z"/>
<path d="M707 922 c-138 -291 -141 -299 -116 -373 48 -137 126 -167 168 -65
85 212 71 205 151 80 139 -217 317 -109 381 233 16 84 39 178 51 208 32 77 10
139 -63 183 -83 48 -101 17 -159 -275 -16 -78 -43 -137 -81 -180 l-58 -63 0
115 c-1 63 10 156 24 207 l24 92 -74 68 c-101 93 -90 104 -248 -230z"/>
<path d="M794 267 c-8 -7 -14 -41 -14 -74 0 -35 -19 -80 -43 -107 l-44 -46
267 0 267 0 -42 45 c-23 25 -45 77 -49 115 l-6 70 -161 6 c-88 3 -167 -1 -175
-9z"/>
</g>
</svg>
